<svg xmlns="http://www.w3.org/2000/svg" xmlns:xlink="http://www.w3.org/1999/xlink" viewBox="0 0 1920 1601"><defs><style>.cls-1{fill:url(#linear-gradient);}</style><linearGradient id="linear-gradient" x1="1448.54" y1="1648.97" x2="439.67" y2="-98.43" gradientUnits="userSpaceOnUse"><stop offset="0" stop-color="#1ee7b9"/><stop offset="0.39" stop-color="#1ebeb9"/><stop offset="0.79" stop-color="#1f9bb9"/><stop offset="1" stop-color="#1f8eb9"/></linearGradient></defs><g id="Layer_2" data-name="Layer 2"><g id="Layer_1-2" data-name="Layer 1"><path class="cls-1" d="M15.25,1380h2c170.22,114.23,458.22,157.91,684.48,64.21,9.19-3.8,19.27-8,30.17-7.16,7,.53,13.14,3.06,19,5.53C955,1528.43,1165.72,1601,1417.58,1601c182.91,0,354.46-30.89,502.42-84.89V213.51A640.06,640.06,0,0,1,1715,247c-205.45,0-388.33-96.67-505.63-247h-1.26C1100,114.23,917.18,157.91,773.52,64.21c-5.84-3.8-12.24-8-19.16-7.16-4.44.53-8.34,3.06-12.06,5.53C612.7,148.43,478.91,221,319,221A638.11,638.11,0,0,1,0,136.11v1256Q7.73,1386.09,15.25,1380Z"/></g></g></svg>