<svg xmlns="http://www.w3.org/2000/svg" xmlns:xlink="http://www.w3.org/1999/xlink" viewBox="0 0 1920 936"><defs><style>.cls-1{fill:url(#linear-gradient);}</style><linearGradient id="linear-gradient" x1="1304.94" y1="1176.63" x2="476.08" y2="-259" gradientUnits="userSpaceOnUse"><stop offset="0" stop-color="#1ee7b9"/><stop offset="0.39" stop-color="#1ebeb9"/><stop offset="0.79" stop-color="#1f9bb9"/><stop offset="1" stop-color="#1f8eb9"/></linearGradient></defs><g id="Layer_2" data-name="Layer 2"><g id="Layer_1-2" data-name="Layer 1"><path class="cls-1" d="M30.78,903.25c52.69-35.78,116.78-57.08,182.65-61.69,38.54-2.71,79.57.89,116,12.57,39.5,12.66,75.83,29.23,119.22,26.17,36.7-2.59,70.36-18.4,105.61-27.92A314.41,314.41,0,0,1,709,850.51c36.37,8.86,71.81,24.41,109.48,23.15,48.06-1.6,90.34-30.32,138.1-35.43,70.81-7.58,138,37.62,209.11,33.22,34-2.1,65.66-15.39,98.65-22.91a295.1,295.1,0,0,1,133.45.78c31,7.46,60.85,20,92.87,22.12,43.09,2.79,84.42-13.67,126.59-22.07a324.15,324.15,0,0,1,60.47-6.19c90.48-.78,177.64,35.69,242.26,92.82V231.54s-68.5-87.88-305.5-95S1213.81,0,1213.81,0H0V926.82A343.44,343.44,0,0,1,30.78,903.25Z"/></g></g></svg>