<svg xmlns="http://www.w3.org/2000/svg" viewBox="0 0 807.59 592.24"><defs><style>.cls-1{fill:#23c2ef;}.cls-2{fill:#092a48;}.cls-3{fill:#ed4927;}.cls-4{fill:#6acce4;}.cls-5{fill:#9cdae7;}.cls-6{fill:#e5e9ea;}.cls-7{fill:#17ade2;}.cls-8{fill:#ec3f26;}.cls-9{fill:#102334;}.cls-10{fill:#21b6c4;}.cls-11{fill:#101820;}.cls-12{fill:#0c2e4c;}.cls-13{fill:#0694d5;}.cls-14{fill:#f4ab77;}.cls-15{fill:#61cae3;}.cls-16{fill:#e1e3e3;}.cls-17{fill:#b3e1f1;}.cls-18{fill:#1381c1;}.cls-19{fill:#e7f6fb;}.cls-20{fill:#fdfefe;}.cls-21{fill:#f4f4f4;}.cls-22{fill:#fefefe;}.cls-23{fill:#fff;}.cls-24{fill:#f4fbfe;}.cls-25{fill:#b5b4b4;}.cls-26{fill:#3a5b73;}.cls-27{fill:#e6f6fb;}</style></defs><g id="Layer_2" data-name="Layer 2"><g id="Layer_1-2" data-name="Layer 1"><path class="cls-1" d="M316.41,220.7c-31.5,0-63,0-94.48,0-11.46,0-21.48-3.87-29.26-12.47-10.15-11.22-12.84-24.38-8.11-38.56s15.23-22.69,30-25.56c3-.58,6.08-.29,9.13-.38,1.25,0,2.5,0,4,0,.47-3.2.86-6.19,1.34-9.17A80.76,80.76,0,0,1,295.1,68.41a97.18,97.18,0,0,1,17.29-1c1.6,0,3.19,0,5,0,1.09-1,1.16-2.46,1.49-3.83A82.51,82.51,0,0,1,387.43.87a82.39,82.39,0,0,1,91.63,60.86c.47,1.84,1,3.67,1.5,5.54,2.09.61,4,.22,5.9.15,11.39-.47,22.49,1,33,5.51,28.23,12,45.11,33.09,50.24,63.43.38,2.22.65,4.45,1,6.67,0,.12.2.23.52.58,1.66,0,3.55,0,5.45,0a36.27,36.27,0,0,1,25.74,9.08c12,10.5,16.21,23.86,12.23,39.17s-14.26,24.42-29.51,27.9a48.17,48.17,0,0,1-10.54.88q-46.27.12-92.55.09c-.07-1.6-.2-3.19-.21-4.78q0-14.14,0-28.3a15.62,15.62,0,0,0-1-6.57.81.81,0,0,0-.58-.62L476,177.27c-1.88-1.38-4-.78-6.07-.78q-70.6,0-141.2,0c-1.29,0-2.58-.08-3.86,0a11.14,11.14,0,0,0-2.24.7c-3.67.63-5.46,3-5.84,6.52a41.29,41.29,0,0,0-.16,4.31c0,8.81,0,17.62,0,26.43C316.63,216.55,316.48,218.62,316.41,220.7Z"/><path class="cls-1" d="M666.94,263.12c.07,1.75.2,3.51.2,5.27q0,27.6,0,55.21c0,1.92.2,3.83.3,5.74l-4.4,6.66c-9.46-11.74-17-23.23-18.94-28.81a41.06,41.06,0,0,0,2.07-4.27,22.74,22.74,0,0,0,1.23-5.07c.09-.78-.62-1.65-.95-2.46l-2.83.68c-2-3.66-5.57-5.44-9.41-6.77-1.35-.46-2.63-1.12-4-1.69a6.64,6.64,0,0,0-1.78-.55q-8.14-.06-16.29,0a11,11,0,0,0-2,.41v3.82c5.85.34,11.42.22,17,.09l4.41,3.72q-17.53,0-35.06.09c-1.44,0-2.88,0-4.31.17a1.83,1.83,0,0,0-1.48,2.12,2.35,2.35,0,0,0,2.05,2.31,38.73,38.73,0,0,0,4.31.17l34.58.09c-.94,3.71.17,6.63,3.44,8.64a7.17,7.17,0,0,1,2.88,3.7c.6,1.49,1.24,2.95,1.88,4.42,3.8,8.63,7.51,17.3,11.44,25.87a86.93,86.93,0,0,0,9,15.3,22.61,22.61,0,0,0,6.83,6.63q0,16.38,0,32.77c0,1.45,0,2.9-.13,4.33a3.72,3.72,0,0,1-3.33,3.58,34.48,34.48,0,0,1-5.28.29q-30.6,0-61.21,0H521.53a46.68,46.68,0,0,1-5.29-.18,4.2,4.2,0,0,1-4.09-4,31.09,31.09,0,0,1-.15-4.32q0-35.19,0-70.37,0-28.9,0-57.83c0-1.92.2-3.83.3-5.75Zm-97.41,44.64h24.53c1.29,0,2.57,0,3.85-.11a2.24,2.24,0,0,0,2.2-2.13c.1-1.3-.81-2.28-2.38-2.45a21.48,21.48,0,0,0-2.41-.09H543.86a19.19,19.19,0,0,0-2.4.11,2,2,0,0,0-1.82,2.38,2,2,0,0,0,2,2.21c1.11.09,2.24.08,3.36.08Zm36.64,28h-24c-1.29,0-2.57,0-3.85.08a2.35,2.35,0,0,0-.2,4.61,13.65,13.65,0,0,0,1.92.1q25.74,0,51.48,0a15.82,15.82,0,0,0,2.39-.14,2.26,2.26,0,0,0,1.91-2.39,2.05,2.05,0,0,0-1.72-2,24.34,24.34,0,0,0-3.82-.22Q618.2,335.72,606.17,335.74ZM585,291.38h15.86c1.12,0,2.24,0,3.36-.08a2,2,0,0,0,1.91-2.28,2,2,0,0,0-1.9-2.32,15.34,15.34,0,0,0-1.92-.09q-16.58,0-33.15,0a12.32,12.32,0,0,0-2.84.33,2.29,2.29,0,0,0-1.53,2.66,1.85,1.85,0,0,0,2,1.71c1.12.06,2.24.06,3.36.06Zm-32.93,44.39v0h-15.4a31.35,31.35,0,0,0-3.36.12,2.29,2.29,0,0,0-2.18,2.16c-.06,1.32.84,2.26,2.41,2.44a17.6,17.6,0,0,0,1.92.07q16.6,0,33.19,0a13.65,13.65,0,0,0,1.92-.1,1.91,1.91,0,0,0,1.77-1.92c.16-1.79-.55-2.7-2.48-2.72C564,335.73,558,335.77,552.09,335.77Zm-3.2,53.92c5.13,0,10.26,0,15.38,0a18.58,18.58,0,0,0,3.34-.25,2.21,2.21,0,0,0,.13-4.24,15.45,15.45,0,0,0-3.33-.28q-15.39,0-30.76,0a25.13,25.13,0,0,0-2.88.12c-1.19.15-1.79,1.05-1.72,2.44.05,1.05.45,1.91,1.59,2.06a26.75,26.75,0,0,0,3.35.16C539,389.7,543.92,389.69,548.89,389.69Zm53.89-16.39c5.13,0,10.27,0,15.41,0a20.8,20.8,0,0,0,3.35-.22,2,2,0,0,0,1.74-2,2.22,2.22,0,0,0-1.89-2.39,14.81,14.81,0,0,0-2.4-.15h-31.3a15.14,15.14,0,0,0-2.86.26,2.29,2.29,0,0,0-1.68,2.58,1.82,1.82,0,0,0,1.81,1.85c1.12.09,2.25.08,3.37.08ZM580,397.49h18.76c1.28,0,2.56,0,3.83-.15a1.63,1.63,0,0,0,1.53-1.56,1.78,1.78,0,0,0-1.45-2.11,16,16,0,0,0-2.39-.17H559.85a12.69,12.69,0,0,0-2.38.21,1.62,1.62,0,0,0-1.3,1.75,1.56,1.56,0,0,0,1.22,1.79,19.73,19.73,0,0,0,3.35.24C567.15,397.5,573.56,397.49,580,397.49Zm-7.07-85.71c-.78-.07-1.42-.16-2-.16q-15.61,0-31.24,0a15.34,15.34,0,0,0-1.92.07,2.33,2.33,0,0,0,.12,4.58c1.12.09,2.25.06,3.37.06q11.53,0,23.07,0c2.72,0,5.43-.09,8.15-.19.27,0,.53-.3.83-.48C574,314.46,574,313.29,572.91,311.78ZM563.85,332c5.78,0,11.55,0,17.33,0a19.54,19.54,0,0,0,3.34-.24,1.86,1.86,0,0,0,0-3.53,16.18,16.18,0,0,0-2.87-.22H547.46a15.22,15.22,0,0,0-2.87.17,2.06,2.06,0,0,0-1.78,2c-.09,1,.58,1.7,1.79,1.79s2.25.07,3.37.07Zm-4.68,49.15H575c1.12,0,2.25,0,3.36-.14a1.7,1.7,0,0,0,1.58-2,1.6,1.6,0,0,0-1.39-1.67,21.17,21.17,0,0,0-2.87-.18q-16.35,0-32.69,0a19.67,19.67,0,0,0-2.87.19,1.6,1.6,0,0,0-1.35,1.7c0,.89.28,1.66,1.17,1.83a16.92,16.92,0,0,0,3.34.26C548.59,381.12,553.88,381.1,559.17,381.1Zm13.48-16.25a17.35,17.35,0,0,0,3,.52c8,0,16,0,23.95,0a10,10,0,0,0,1.9-.18,2.19,2.19,0,0,0,1.58-2.59,1.91,1.91,0,0,0-1.79-1.89,11.4,11.4,0,0,0-1.43-.06c-8.15,0-16.29,0-24.44,0a13.12,13.12,0,0,0-2.72.58Zm.74-69.64v0c-3.83,0-7.66,0-11.49,0a1.78,1.78,0,0,0-1.85,1.8,2.31,2.31,0,0,0,1.16,2.42,4,4,0,0,0,1.84.44q10.77,0,21.54,0a1.55,1.55,0,0,0,.92-.19c.47-.37,1.11-.81,1.22-1.31.35-1.66,0-3.18-2.33-3.19Zm42.11,61.4c1.28-3.37.85-4.26-2.27-4.28-6.9,0-13.8,0-20.7,0a13.21,13.21,0,0,0-2.47.52c0,1.08,0,2,0,2.92,0,.26.35.49.54.74C594.42,357,610.91,357.08,615.5,356.61Zm-.78-28.34c-6.43-.61-21.25-.45-24.87.25-.52,1.32-.76,2.63.48,3.82a4,4,0,0,0,.94.25c7,0,14.05.05,21.07.07a7.72,7.72,0,0,0,1-.05c1.28-.16,1.82-.76,1.86-2.29A9.39,9.39,0,0,0,614.72,328.27Zm-69.07,28.41a32,32,0,0,0,7.11.35c5.12,0,10.25,0,15.37,0a2.23,2.23,0,0,0,1.72-3.51,2.61,2.61,0,0,0-2.5-1.08c-6.56,0-13.13,0-19.7,0a8.15,8.15,0,0,0-2,.57Zm80.24,24.42h8.66c1.44,0,2.89,0,4.33-.08a1.79,1.79,0,0,0,1.88-1.77c.11-1.23-.57-1.94-2-2.09a14.06,14.06,0,0,0-1.45-.06c-7.85,0-15.71,0-23.56,0a10,10,0,0,0-2.38.24,1.88,1.88,0,0,0,.16,3.55,19.67,19.67,0,0,0,2.87.19C618.2,381.11,622.05,381.1,625.89,381.1Zm-19.84-3.69c-2.48-.62-4.88-.29-7.26-.34-2.56-.06-5.13-.07-7.69,0-2.35.07-4.75-.35-7,.34-.76,3.73-.49,4.27,2.42,4.31,5.61.07,11.22,0,16.83,0a8.64,8.64,0,0,0,1.44-.09c1.19-.18,1.81-.94,1.78-2.41A6.93,6.93,0,0,0,606.05,377.41Zm-40.74-98.52c-1.58,1.63-1.6,3,0,4.63,6.55,0,13.29,0,20,0a2,2,0,0,0,2.17-2.05c.12-1.53-.61-2.52-2.16-2.53C578.59,278.86,571.85,278.89,565.31,278.89ZM538.6,397.48h0c3.36,0,6.72,0,10.08,0a6.06,6.06,0,0,0,2.35-.32,2.27,2.27,0,0,0,1-1.46,1.57,1.57,0,0,0-1-1.92,5.9,5.9,0,0,0-1.88-.27q-10.8,0-21.6,0a7.54,7.54,0,0,0-1.9.22,1.63,1.63,0,0,0-1.24,1.79,1.6,1.6,0,0,0,1.29,1.75,16.93,16.93,0,0,0,2.85.21C531.88,397.5,535.24,397.48,538.6,397.48Zm88.47-93.43a17.34,17.34,0,0,0-2.28-.41q-9.15,0-18.31,0a7.52,7.52,0,0,0-1.89.23c-.91.24-1.16,1-1.18,1.84a1.77,1.77,0,0,0,1.07,1.94,4,4,0,0,0,1.41.23q9.87,0,19.74-.09a4.48,4.48,0,0,0,1.44-.61Zm2.71,27.9h0c2.23,0,4.46,0,6.7,0a32.15,32.15,0,0,0,3.8-.21c.91-.12,1.28-.85,1.32-1.72a1.6,1.6,0,0,0-1.2-1.81A9.81,9.81,0,0,0,638,328q-7.89,0-15.79,0a6.26,6.26,0,0,0-2.34.29,2.22,2.22,0,0,0-1.06,1.4,1.58,1.58,0,0,0,.93,2,7.31,7.31,0,0,0,2.34.31C624.67,332,627.23,332,629.78,332Zm-91.13,16.79h8.17c2.24,0,4.48,0,6.72-.06,1.41,0,2-.6,2-2.11a7.13,7.13,0,0,0-.63-2.13H538.65Zm43,36.25h0c-2.23,0-4.46-.08-6.68,0a2.23,2.23,0,0,0-2.32,2.46,2.15,2.15,0,0,0,2.2,2.09c4.45.08,8.9.1,13.35,0a2.28,2.28,0,0,0,.12-4.55C586.06,384.92,583.83,385,581.61,385Zm-17-61c1-3.57.65-4.34-2.16-4.39-3.85-.07-7.71,0-11.56,0a10,10,0,0,0-2.15.48c-.57,1.44-.78,2.63.28,3.9Zm4.66-52.82c-4.47-.85-13-.78-16.31.11a3,3,0,0,0,.63,3.81c2.41,0,5.11.1,7.81,0s5.38.59,8.11-.62C569.41,273.27,569.33,272.2,569.26,271.19Zm64.92,101.94v.09c1.92,0,3.83.07,5.75,0,1.26-.06,1.9-.94,1.9-2.29s-.64-2.25-1.91-2.3c-2.71-.1-5.42-.09-8.14-.09a20.73,20.73,0,0,0-3.34.19,2.09,2.09,0,0,0-1.79,2,2.14,2.14,0,0,0,1.79,2.43C630.35,373.22,632.27,373.13,634.18,373.13ZM554.1,278.86v0c-1.43,0-2.86-.05-4.29,0-1.76.08-2.41.72-2.46,2.22s.6,2.39,2.24,2.43c2.86.08,5.72,0,8.58,0a2.81,2.81,0,0,0,1.35-.39,2.34,2.34,0,0,0,1.17-2.41,1.77,1.77,0,0,0-1.83-1.79C557.28,278.8,555.69,278.86,554.1,278.86Zm25.22,78v-.06c1.76,0,3.52.08,5.27,0a2.25,2.25,0,0,0,2.06-2.26,2.22,2.22,0,0,0-2.09-2.23c-2.87-.11-5.75-.06-8.63,0a3,3,0,0,0-.92.22,2.41,2.41,0,0,0-1.49,2.7,1.84,1.84,0,0,0,2,1.7C576.76,356.9,578,356.86,579.32,356.86ZM591,279v3.84a12.37,12.37,0,0,0,8-.05,5,5,0,0,0-.49-3.79ZM541.89,324.1a7.29,7.29,0,0,0,1.43-.12,2.25,2.25,0,0,0,1.77-2.44,2,2,0,0,0-1.75-2,29.88,29.88,0,0,0-5.18,0,1.91,1.91,0,0,0-1.24,1.21c-.49,1.64,0,3.26,2.14,3.28Zm6.63-49.22c.88-2.13.86-3.58-.78-4.25a8.17,8.17,0,0,0-5.58-.05,2.4,2.4,0,0,0-1.38,2.73,1.84,1.84,0,0,0,2,1.61C544.66,275,546.53,274.9,548.52,274.88Zm-19.64,36.75v-.05H527a7.43,7.43,0,0,0-.94.07,2,2,0,0,0-1.58,2.82c.3.65,1,1.49,1.57,1.56a23.26,23.26,0,0,0,5.14,0c1.06-.12,1.63-1.35,1.49-2.62a1.81,1.81,0,0,0-1.89-1.72C530.15,311.59,529.51,311.63,528.88,311.63Zm36.25,53.15a12.22,12.22,0,0,0,2.67-.25c.52-.16,1.25-.74,1.26-1.15a4.63,4.63,0,0,0-.76-2.08,1.11,1.11,0,0,0-.82-.41c-1.74,0-3.48-.07-5.21.05-.92.06-1.26.85-1.3,1.71a1.57,1.57,0,0,0,1.17,1.81A27.68,27.68,0,0,0,565.13,364.78ZM530.9,344.27a12.46,12.46,0,0,0-2.73.38,2.21,2.21,0,0,0-1,1.45c-.19.82.12,1.81,1,1.91a30.33,30.33,0,0,0,5.22.06c.91-.05,1.25-.88,1.24-1.76a1.59,1.59,0,0,0-1.27-1.76C532.61,344.39,531.8,344.37,530.9,344.27Z"/><path class="cls-2" d="M321.43,504.47c.07-5.46.12-10.92.21-16.37,0-1.93.14-3.85.21-5.77H476.6q.11,6.5.22,13c.06,3.05.14,6.09.2,9.14-.07,1.27-.2,2.55-.2,3.83q0,26.94,0,53.88c0,1.28.13,2.55.2,3.83,0,3,0,5.92,0,8.87a38.35,38.35,0,0,0-.15,4.28,7.47,7.47,0,0,1-2.14,6.07c-1.76.08-3.52.23-5.28.23H329c-1.76,0-3.52-.15-5.27-.23a6.86,6.86,0,0,1-2.13-5.56c.09-1.57-.08-3.16-.13-4.74,0-3,0-6,0-8.94.06-.79.17-1.59.17-2.39q0-28.12,0-56.25C321.64,506.38,321.5,505.43,321.43,504.47Zm118.21,29.29c-1.25.88-2.23,1.63-3.27,2.28-6.28,3.89-12.57,7.74-18.86,11.62a23,23,0,0,0-2.79,1.87,3,3,0,0,0-.72,3.89,3.14,3.14,0,0,0,4.14,1.3,15.39,15.39,0,0,0,2.11-1.15q12.93-7.94,25.83-15.91a15.61,15.61,0,0,0,2.37-1.64,3.18,3.18,0,0,0,.08-4.35A12.6,12.6,0,0,0,446.2,530q-12.9-8-25.84-15.89a19.39,19.39,0,0,0-2.54-1.36,3,3,0,0,0-3.73,1.29,2.86,2.86,0,0,0,.5,3.91,19.16,19.16,0,0,0,2.77,1.91l18.85,11.62C437.29,532.13,438.31,532.87,439.64,533.76Zm-80.9.11c1.26-.9,2.25-1.68,3.31-2.33,6.27-3.88,12.57-7.73,18.85-11.61a20.9,20.9,0,0,0,3.12-2.21,3.31,3.31,0,0,0,.15-4,3.25,3.25,0,0,0-3.45-1,18.24,18.24,0,0,0-2.55,1.34l-25.83,15.86a16.89,16.89,0,0,0-2,1.34c-1.9,1.6-1.82,3.68.17,5.28a10.43,10.43,0,0,0,1.2.8l27.06,16.63a10.3,10.3,0,0,0,1.25.71,3.29,3.29,0,0,0,4.26-1c.94-1.56.51-3.36-1.19-4.6-.91-.65-1.9-1.2-2.85-1.79l-17.62-10.85C361.41,535.63,360.22,534.83,358.74,533.87ZM407,509.69c.21-2.23-.77-3.74-2.56-4.09s-3.17.77-3.74,2.88c-.29,1.08-.5,2.19-.71,3.29q-4.2,22.41-8.38,44.83a13.62,13.62,0,0,0-.34,1.89,3.21,3.21,0,0,0,6.31,1.09,17,17,0,0,0,.36-1.89l6.69-35.37C405.45,518.07,406.25,513.82,407,509.69Z"/><path class="cls-3" d="M476,177.27l4.29,3.19a.77.77,0,0,0,.58.62,15.62,15.62,0,0,1,1,6.57q0,14.16,0,28.3c0,1.59.14,3.18.21,4.78-.06,1.92-.18,3.84-.18,5.77q0,103.13,0,206.26c0,1.44.05,2.89,0,4.33-.22,5.19-3.34,8.37-8.43,8.61-1,.05-1.92,0-2.89,0H327.87a38,38,0,0,1-3.85-.06,8.09,8.09,0,0,1-7.31-7.15,46.61,46.61,0,0,1-.12-5.29q0-103.38,0-206.74c0-1.93-.11-3.85-.17-5.77.07-2.08.22-4.15.22-6.23,0-8.81,0-17.62,0-26.43a41.29,41.29,0,0,1,.16-4.31c.38-3.54,2.17-5.89,5.84-6.52,2.56-.06,5.12-.17,7.69-.17H469.76C471.84,177.05,473.92,177.19,476,177.27Zm-.84,127.21V203.72c0-1.61,0-3.22-.11-4.82a2.71,2.71,0,0,0-2.43-2.59,25.87,25.87,0,0,0-3.84-.19H329.45c-5.89,0-6.17.3-6.17,6.34q0,102,0,203.92c0,.81,0,1.61,0,2.41.17,3.07,1,3.83,4.19,4,1.12.05,2.25,0,3.37,0h137.4a34.6,34.6,0,0,0,4.32-.17,2.68,2.68,0,0,0,2.47-2.55c.14-1.43.12-2.89.12-4.33ZM399.16,435h18.75a25.05,25.05,0,0,0,3.36-.09,5,5,0,0,0,.34-10,13.73,13.73,0,0,0-2.87-.22q-19.71,0-39.43,0a11.1,11.1,0,0,0-3.3.45,5,5,0,0,0,.57,9.63,16.9,16.9,0,0,0,3.34.2Zm.13-244.93H419c1.12,0,2.24,0,3.35-.11a2.48,2.48,0,0,0,2.22-1.58,2.55,2.55,0,0,0-1.06-2.94,8.16,8.16,0,0,0-2.57-1.1,10,10,0,0,0-2.39-.07H379.16a19.57,19.57,0,0,0-2.87.13,2.65,2.65,0,0,0-2.43,3,2.56,2.56,0,0,0,2.4,2.54,26.66,26.66,0,0,0,3.35.13ZM342.06,436h0c2.71,0,5.42.08,8.12-.05a4,4,0,0,0,2.55-1,3.68,3.68,0,0,0,.41-4.05,2.72,2.72,0,0,0-2.72-1.6c-1.91,0-3.82,0-5.73,0-3.67,0-7.34,0-11,.07a4,4,0,0,0-2.55,1,3.68,3.68,0,0,0-.41,4.05,2.69,2.69,0,0,0,2.72,1.6C336.32,436,339.19,436,342.06,436Zm103.64-.46c2.41.85,4.82.41,7.18.49s4.49.07,6.74,0,4.77.42,7.12-.54a7.22,7.22,0,0,0,0-5.73c-2.4-.84-4.82-.41-7.18-.48s-4.49-.08-6.73,0-4.78-.42-7.12.55A7.16,7.16,0,0,0,445.7,435.51Z"/><path class="cls-4" d="M286,263.16c.05,1.28.13,2.57.13,3.85q0,23.37,0,46.74c0,1.13,0,2.26-.06,3.37-.24,2.64-1.63,4-4.35,4.19-1.12.09-2.25,0-3.37,0q-48.43,0-96.86,0c-1.92,0-3.84-.19-5.76-.3a8.77,8.77,0,0,0,5.06-6.46c.59-2.63,1.88-4.62,4.51-5.59.21-.08.27-.53.4-.81-1.48-2.79-1.48-2.79-5.28-5,1.75-.12,3.5-.27,5.26-.36,1.28-.06,2.56,0,3.84-.09a2.31,2.31,0,0,0,.11-4.55,15.41,15.41,0,0,0-1.92-.08H154.07a17.24,17.24,0,0,0-2.39.17,1.65,1.65,0,0,0-1.42,1.67,2.27,2.27,0,0,0,2,2.74c1.43.14,2.88.11,4.32.13l20.66.29c-1.24.69-2.54,1.31-3.72,2.1a3.29,3.29,0,0,1-3.14.44,4.94,4.94,0,0,0-1.84-.18c-2.21.15-4.41.34-6.62.54-1.25.12-2.49.29-3.74.43-.94,1.26-1,2.54,0,4.19l7.34.08a55.45,55.45,0,0,0,1.52,5.34,4.64,4.64,0,0,1-1.18,5.54c-2.56-.08-5.12-.21-7.67-.22-7,0-14.09,0-21.13,0-4.44,0-6-1.36-6-5.55,0-17.29,0-34.57.07-51.85a7.85,7.85,0,0,1,.16-.95c1.45.06,2.89.18,4.33.18Zm-90.15,35.18c-.66,4-.42,4.33,2.56,4.47.32,0,.64,0,1,0q25.49,0,51,0a15.18,15.18,0,0,0,2.86-.21,2,2,0,0,0,1.6-2.1,2,2,0,0,0-1.53-2.15,24.48,24.48,0,0,0-3.83-.24q-24.53,0-49.05,0C199,298.12,197.58,298.25,195.87,298.34Zm-12.46-4c5.61,0,11.22,0,16.83,0a26.61,26.61,0,0,0,3.34-.19A1.78,1.78,0,0,0,205,292a1.63,1.63,0,0,0-1.5-1.6c-1.11-.11-2.23-.16-3.35-.16H166.45a27.43,27.43,0,0,0-2.87.1,1.71,1.71,0,0,0-1.66,1.45,2,2,0,0,0,1.34,2.27,18.65,18.65,0,0,0,3.33.29C172.2,294.35,177.81,294.34,183.41,294.34ZM173.74,278h13.95c1.12,0,2.25-.06,3.36-.16a1.57,1.57,0,0,0,1.46-1.6,1.82,1.82,0,0,0-1.34-2.21,11,11,0,0,0-1.9-.18q-15.4,0-30.79,0a6.09,6.09,0,0,0-2.35.31,1.91,1.91,0,0,0-1,1.45,2.62,2.62,0,0,0,.86,2,6.49,6.49,0,0,0,2.81.38C163.8,278,168.77,278,173.74,278Zm35.31,12.54a9.72,9.72,0,0,0,0,2.78c.38,1.07,1.5,1.05,2.45,1.05q9.84,0,19.69,0a6.14,6.14,0,0,0,1.42-.18,1.68,1.68,0,0,0,1.29-1.76,1.75,1.75,0,0,0-1.51-2.07,17.29,17.29,0,0,0-2.38-.15q-8.9,0-17.78,0C211.35,290.23,210.42,290.41,209.05,290.55Zm40.33-.33h0c-2.73,0-5.45,0-8.18,0a5.86,5.86,0,0,0-2.34.33,2.3,2.3,0,0,0-1,1.49,1.7,1.7,0,0,0,.94,2,3.71,3.71,0,0,0,1.41.25c5.93,0,11.87,0,17.8,0a3.2,3.2,0,0,0,1.81-.42,2.23,2.23,0,0,0,.77-1.6,2.08,2.08,0,0,0-.76-1.59,5.18,5.18,0,0,0-2.3-.46C254.83,290.19,252.11,290.22,249.38,290.22Zm-81.81-4.13a106.13,106.13,0,0,0,16,0c1.11-1.66,1.14-2.94-.09-4.12-8.61-.58-14.48-.42-15.89.57Zm-7.79-4.39a20.56,20.56,0,0,0-2.6.26c-1.12.24-1.35,1.2-1.34,2.18s.32,2,1.45,2.1a30.66,30.66,0,0,0,5.16,0,1.94,1.94,0,0,0,1.67-2,2.18,2.18,0,0,0-1.78-2.4C161.57,281.75,160.78,281.76,159.78,281.7Zm-15.73-3.87c2,0,3.85.08,5.72,0a1.81,1.81,0,0,0,2-1.67,2,2,0,0,0-1.75-2.38,12.71,12.71,0,0,0-3.27-.5,4.72,4.72,0,0,0-2.62.81C143.09,274.91,143.31,276.1,144.05,277.83Zm5.95,32.8v.12c.79-.06,1.6-.08,2.38-.2a1.66,1.66,0,0,0,1.44-1.66,2.07,2.07,0,0,0-1.13-2.41,7.28,7.28,0,0,0-5.61,0,2.15,2.15,0,0,0-1.38,2.3,1.88,1.88,0,0,0,1.9,1.79C148.4,310.68,149.21,310.63,150,310.63Z"/><path class="cls-5" d="M286,352q0,26,.07,52a16.08,16.08,0,0,1-.11,2.41,3.94,3.94,0,0,1-3.46,3.47,23.49,23.49,0,0,1-3.36.13H138c-.81,0-1.61,0-2.41,0-2.55-.18-3.83-1.21-4.41-3.64a13.1,13.1,0,0,1-.25-2.87q0-15.9,0-31.8c0-.64.11-1.28.16-1.92,1.15.44,2.27.93,3.48,0s2.56-1.73,3.84-2.58a18.44,18.44,0,0,1,1.79.54,8.49,8.49,0,0,0,8.47-.69,7.29,7.29,0,0,1,2.2-.61c2.7.09,5.39.22,8.08.26,2.86,0,5.73.11,8.59,0,2.63-.12,5.35.6,7.82-.52.48-1.47.66-2.69-.54-3.67a26,26,0,0,0-3.7-.56c-4.79-.06-9.57,0-14.36,0-1.05,0-2.1-.21-3.28-.33a6.32,6.32,0,0,1,.29-1.63c1.37-2.7,2.8-5.37,4.21-8.05,1.13,0,2.25.08,3.37.08ZM170.8,386.92H155.9c-1.12,0-2.25,0-3.37,0-1.68.1-2.35.84-2.3,2.39s.71,2.08,2.51,2.2c.48,0,1,0,1.44,0h33.18a13.68,13.68,0,0,0,2.86-.21c1.12-.24,1.39-1.19,1.36-2.22s-.41-1.92-1.56-2.07a31.17,31.17,0,0,0-3.35-.15Zm13-3.85c5.46,0,10.92,0,16.38,0a31.19,31.19,0,0,0,3.35-.18c.94-.1,1.32-.8,1.4-1.67a1.74,1.74,0,0,0-1.56-2,25.24,25.24,0,0,0-2.88-.14c-2.41,0-4.82,0-7.23,0q-13,0-26,0a27.18,27.18,0,0,0-3.83.26,2,2,0,0,0-1.47,2.19,1.63,1.63,0,0,0,1.62,1.48c1.12.09,2.24.09,3.37.1Zm44.15,0c4.5,0,9,0,13.48,0,1.12,0,2.25,0,3.36-.14a1.66,1.66,0,0,0,1.53-1.58,1.8,1.8,0,0,0-1.44-2.13,15.92,15.92,0,0,0-2.39-.17q-14.92,0-29.85,0a11.9,11.9,0,0,0-2.38.21A1.61,1.61,0,0,0,209,381a1.56,1.56,0,0,0,1.2,1.81,20.61,20.61,0,0,0,3.34.24C218.3,383.08,223.12,383.07,227.93,383.07Zm-5.61,3.9c-9,0-17.5,0-26,0-.25,0-.51.31-1.07.68.06,1,.14,2.19.23,3.64,3.16.27,6,.14,8.88.16,3,0,6.08,0,9.12,0,2.85,0,5.71.24,8.82-.26Zm-29.88-20.34v.07h7.18c1,0,1.92,0,2.87-.05,1.58-.1,2.23-.64,2.31-1.84.1-1.39-.62-2-2.51-2.13-.32,0-.64,0-1,0q-9.33,0-18.67,0a9.82,9.82,0,0,0-2.36.26,1.64,1.64,0,0,0-1.14,1.86,1.73,1.73,0,0,0,1.8,1.82C184.79,366.66,188.62,366.63,192.44,366.63ZM269.49,383v-3.68c-4-.9-15.3-.91-19.18-.07-.76,1.18-.85,2.34.42,3.82C256.65,383.12,262.84,383.18,269.49,383Zm-63-7.82v0c2.07,0,4.15.07,6.21,0,1.7-.07,2.55-.87,2.64-2.18a2.2,2.2,0,0,0-2.35-2.43c-4.3-.08-8.6-.06-12.9,0-1.22,0-1.83,1-1.79,2.37s.67,2.15,2,2.2C202.37,375.25,204.45,375.19,206.52,375.19Zm-5.43,20.17c-2.24,0-4.47-.06-6.71,0a1.86,1.86,0,0,0-1.87,2.24,1.74,1.74,0,0,0,1.79,1.84c4.47.05,8.93.06,13.4,0a1.86,1.86,0,0,0,1.89-2.24,1.78,1.78,0,0,0-1.8-1.84C205.56,395.32,203.32,395.36,201.09,395.36Zm-6.93-20.24c1.06-3.76.68-4.46-2.12-4.57a25,25,0,0,0-3.77.12c-1.11.13-1.52,1-1.56,2-.06,1.39.5,2.35,1.67,2.41C190.24,375.19,192.12,375.12,194.16,375.12Zm-13.24,24.25c2.21,0,3.93.11,5.64.09a8.48,8.48,0,0,0,1.69-.3,3,3,0,0,0-.16-3.81c-2.36-.31-4.81-.88-7.17.54Z"/><path class="cls-2" d="M25.46,355.65c-1.33-2.74-3-5.36-3.95-8.22-4.43-13.33-2.3-25.29,7.88-35.42a41,41,0,0,1,16.8-10c3.06-1,6.12-1.91,9.21-2.78A12.43,12.43,0,0,0,64,291.54,82.21,82.21,0,0,1,72.57,276a46,46,0,0,1,8.35-9.28c7.92-6.56,16.45-5.48,23.74-1.34a12.06,12.06,0,0,1,5.63,6.38,64.29,64.29,0,0,1,2.17,8.83c.43,2.16-.6,4.07-1.48,6l-3.39,3c-1.44-.64-2.56-1.23-3.75-1.64a2.64,2.64,0,0,0-3,.87,2.52,2.52,0,0,0-.48,2.68c.47,1.17,1.05,2.29,1.55,3.35a46.52,46.52,0,0,0-1.81,5,27.55,27.55,0,0,0-.69,5.2,9.21,9.21,0,0,0,3.15,7.53,2.43,2.43,0,0,0-1.83,2.49c.06,1,.15,1.91.29,2.86.75,4.88,1.55,9.76,2.25,14.65a39,39,0,0,1-.25,13.8c-.42,1.38-.8,2.77-1.27,4.13-4.69,13.76-14.88,22.19-30.2,23.73-12.72,1.27-24.87-.9-35.85-7.93l-1.34-.78Q29.91,360.58,25.46,355.65Z"/><path class="cls-6" d="M323.74,585.22c1.75.08,3.51.23,5.27.23H469.43c1.76,0,3.52-.15,5.28-.23,1.12.06,2.23.18,3.35.18h78.79c1.28,0,2.56-.13,3.83-.2l16.5.26c1,.06,1.9.17,2.85.16q21.74,0,43.45-.12c18,.44,49.3.16,54-.55.57-2,1.18-4.11,1.78-6.24h8.52c1.29,0,2.55,0,3.35,1.3a16.65,16.65,0,0,0-1.17,1.49c-1,1.61-.67,2.87,1,3.35a13.84,13.84,0,0,0,3.74.52q10,.11,20.06.06a14.76,14.76,0,0,0,2.59-.45v-6c2.06-.09,4.13-.26,6.2-.27,10.36,0,20.72,0,31.09,0,.57,2.11-.58,4.36.33,6.4,5.73.61,10.57.51,13.84-.29v-6.07q15.66,0,31.31,0c1.82,0,3.5.18,4.82,1.64,1.67,1.84,3.21,3.74,2.41,6.42a7.18,7.18,0,0,1-6.18,5.35,29.76,29.76,0,0,1-4.33.1H697.14l-135.36,0-6.74,0H12c-1.77,0-3.54.08-5.3-.05a6.74,6.74,0,0,1-.82-13.41c1.12-.09,2.25,0,3.38,0H39.12c.47,2.13-.4,4.37.33,6.73,4.47-.1,8.71.35,13.1-.35v-6.36l28.25,0v6.39c1.25.12,2.33.3,3.42.3,5.6,0,11.21,0,16.82,0,1,0,1.92,0,2.88-.1,1.14-.1,2.27-.42,2.69-1.62s-.42-2.09-1.29-2.84l-.75-.61c.65-1.38,1.9-1.52,3.21-1.53l11.39,0c.7,2.11.63,4.46,2.18,6.51,1.19.08,2.45.22,3.7.23q6.51.06,13,.06h37.06c5.22,0,10.44.09,15.66.07,3.16,0,6.32-.15,9.47-.24l21.17.06,16.37-.16c1.44.07,2.87.2,4.31.2h77.82C321.18,585.4,322.46,585.28,323.74,585.22Z"/><path class="cls-7" d="M772.77,372.36c1,6.08,1.9,12.18,2.91,18.26a6.18,6.18,0,0,1-1.49,4.82,47.46,47.46,0,0,1-14.44,7.42,111.61,111.61,0,0,1-21.17,4.2c-5.26.54-10.53.94-15.79,1.4l-16.41-.1-2.82-.16a122.33,122.33,0,0,1-18.33-2.94c-1.21-1-.83-2.35-.77-3.57.39-8.29.85-16.58,1.27-24.87q.54-10.27,1-20.55c.76-9.44,1.5-18.89,2.31-28.33.61-7.2,1.21-14.4,2-21.59a34.69,34.69,0,0,1,4-13.28,12.63,12.63,0,0,0,.76-2.22c1-.77,2-1.59,3-2.3s2.41-1.5,3.62-2.24c0,3.21-.16,6.41-.09,9.61s1.29,6,4.36,7.49c1.46.71,2,1.92,2.59,3.25,1.15,2.48,1,5,.64,7.55-.84,6.85-1.71,13.69-2.51,20.54-1.45,12.42-2.79,24.86-4.34,37.27a12.21,12.21,0,0,0,.8,6.53c2.72,6.5,5.34,13.06,8,19.59.41,1,1,2,1.56,3.23a10.32,10.32,0,0,0,1.26-1.76q4.51-10.87,9-21.79a6.52,6.52,0,0,0,.37-3.74c-.54-3.32-.9-6.67-1.36-10q-2.19-16.21-4.39-32.41c-.88-6.52-1.94-13-2.47-19.57-.35-4.35,1.28-8.12,5.43-10.36a19.79,19.79,0,0,0,9.43-11.13,70.12,70.12,0,0,0,1.86-7.92,26.47,26.47,0,0,1,12.1,3.58,4.3,4.3,0,0,0-3.76,3.79,35.45,35.45,0,0,0-.78,5.67q-.11,8.14.1,16.28a44,44,0,0,0,.7,5.69,16.51,16.51,0,0,0,6.73,11.19,51.44,51.44,0,0,0,6.94,4.2c4.12,2.09,8.34,4,12.52,6,.35,2,.65,4,1,6.06.91,4.63,1.87,9.26,2.81,13.89-2.18,4.7-5.56,8.59-8.67,12.65a28.72,28.72,0,0,1-2.54,2.61c-4.61.22-9.33-2.3-13.59,1.64l3,2.8a43.53,43.53,0,0,0-2.74,4,37.23,37.23,0,0,0-2.54,5.66c-.55,1.68.16,2.74,1.79,3.41,2.78,1.16,5.67.92,8.53.47a10.08,10.08,0,0,0,8.73-7.9,14,14,0,0,1,4.71-7.55C769.43,375.34,771.09,373.84,772.77,372.36Z"/><path class="cls-4" d="M667,440q0,24.09,0,48.18c-3,.07-4.69-1.72-6-4.07-.92-1.67-1.7-3.43-2.59-5.12-1.48-2.81-3.58-4.87-6.84-5.49a5.94,5.94,0,0,0-.72-1.22c-2.13-2.23-4-2-5.67.65a5.32,5.32,0,0,0-.42,1.35c-3,.62-4.36,3-5.39,5.54-1,2.33-1.6,4.81-2.36,7.24-.71,2.27-1.32,4.57-2.11,6.82-.64,1.81-1.48,3.54-3.47,4.3a4.42,4.42,0,0,0-5.52,0c-2.48-1.05-3.21-3.42-4-5.61-1-2.67-1.51-5.48-2.37-8.19-.77-2.41-1.62-4.79-2.6-7.11a6.36,6.36,0,0,0-4.34-4.06,8.22,8.22,0,0,0-.67-1.76c-1.65-2.39-4.19-2.31-5.64.19a6.61,6.61,0,0,0-.4,1.83c-2.13.33-3.23,2-4.18,3.59a24.75,24.75,0,0,0-2.35,5.19c-1.38,4.55-2.52,9.17-3.85,13.74-.87,3-1.39,6.21-3.74,8.6a5.37,5.37,0,0,0-4.89.74,22.75,22.75,0,0,1-4.8-7.66c-1.21-2.77-2.45-5.55-3.88-8.22-1.05-2-2.3-3.88-4.75-4.4-1.33-3.94-1.94-4.23-6-2.75a11,11,0,0,1-3.18-5.16c-.82-2.39-1.56-4.81-2.47-7.17a61.91,61.91,0,0,0-3-6.93c-1-1.93-2.31-3.82-4.81-4.19a11.29,11.29,0,0,0-.94-2.16c-1.29-1.83-3.39-2-4.79-.33a8.53,8.53,0,0,0-1,2.6,4.3,4.3,0,0,0-3.3,2.49,25.26,25.26,0,0,0-2.19,4.76c-.89,2.88-1.45,5.87-2.29,8.77s-1.81,5.76-2.87,8.59c-.5,1.32-1.23,2.63-2.89,2.9-2-.85-3.92-.94-5.64.66-3-1.82-3.7-5.06-4.81-8-.79-2.09-1.29-4.29-2.13-6.35-1.67-4.13-4.43-7-9.19-7.27l.09-25.73c2.07.13,4.14.37,6.22.37q71.73,0,143.46,0C663.51,440.17,665.27,440.08,667,440Z"/><path class="cls-2" d="M105.58,416.91c-.4,6.69-.74,13.39-1.22,20.08-.81,11.3-1.7,22.6-2.57,33.9-.15,1.91-.43,3.82-.44,5.73a5.76,5.76,0,0,1-2.56,4.83c-5.64,2.64-11.39,5-17.63,5.79-3.64.47-7.29.83-10.93,1.23L60,488.24c-.78-.12-1.55-.27-2.34-.36-9.45-1.13-18.78-2.76-27.48-6.9l-3.48-2.55a7.69,7.69,0,0,1-3.21-6.05c-.8-9.74-.89-19.5-.86-29.25,0-10.56,0-21.13,1-31.65.29-2.86.75-5.7,1.13-8.55A100,100,0,0,0,43,410.39a235.55,235.55,0,0,0,37.22,7.51C88.77,418.87,97.2,419,105.58,416.91Z"/><path class="cls-8" d="M323.74,585.22c-1.28.06-2.56.18-3.83.18H242.09c-1.44,0-2.87-.13-4.31-.2-1.29-3.64-3.26-7.1-3.28-11.63l4.06,2.52a46,46,0,0,0,10.89,5c8.76,2.69,16.78.7,24.38-3.83,1.5-.89,2.95-2,3.25-4a3.37,3.37,0,0,0-3-2.08,25.05,25.05,0,0,0-3.36-.21c-5.34-.09-10.49,1.08-15.62,2.44-2.47.66-5,1.25-7.49,1.66a9,9,0,0,1-6.87-1.59c-5.8-4.3-10.24-9.66-12.26-16.75a10.58,10.58,0,0,1,0-2.56c1.58.38,2.8.62,4,1A105.91,105.91,0,0,0,249.33,559a13.56,13.56,0,0,0,8.85-1.36,2.1,2.1,0,0,0,.4-3.61,43.3,43.3,0,0,0-5.09-2.57l.13.06-1.7-.51a13.87,13.87,0,0,0-6.82-1c-2.65-.37-5.31-.66-7.94-1.13a17.82,17.82,0,0,1-4-1.24,3.05,3.05,0,0,1-1.74-3.52c.26-1.39.64-2.75,1-4.13a71,71,0,0,0,3.18-7.49c2.37-7.77.62-14.86-4.08-21.34-.47-.64-1-1.22-1.51-1.86-.06-.07.06-.29.16-.69,1,0,2.05,0,3.11,0a52.13,52.13,0,0,0,23-3.73,57,57,0,0,1,8.68-2.78c4.15-1,7.18.4,9.3,4.14a44.32,44.32,0,0,1,2.27,5.29c1.55,3.86,3,7.78,4.66,11.59a20.07,20.07,0,0,0,8.88,9.8,13.79,13.79,0,0,0,4.49,1.52c2.22.34,3.68-1,3.78-3.31a8.21,8.21,0,0,0-.34-2.84,59.49,59.49,0,0,0-2.67-7.19A61.05,61.05,0,0,0,284,505c-.87-.91-1.75-1.8-2.79-2.87a12.05,12.05,0,0,1,4.74-1.5,66.6,66.6,0,0,1,27.17,1.61c2.79.7,5.56,1.5,8.33,2.26.07,1,.21,1.91.21,2.87q0,28.13,0,56.25c0,.8-.11,1.6-.17,2.39a8.37,8.37,0,0,0-2.23.54c-2.28,1.27-2.7,2.81-1.45,5a6.64,6.64,0,0,0,3.69,3.37c0,1.58.22,3.17.13,4.74A6.86,6.86,0,0,0,323.74,585.22ZM270,522.59a17,17,0,0,0-2.44-9,4.88,4.88,0,0,0-6.23-2.12c-2.72,1-4.06,3.23-3.47,6a14.42,14.42,0,0,0,5.23,8.36,7.29,7.29,0,0,0,2.12,1.07,3.29,3.29,0,0,0,4.47-2.32A16.45,16.45,0,0,0,270,522.59Zm38.26,16.33a4.64,4.64,0,0,0-4.27,2.64,9.15,9.15,0,0,0,1.1,9.5,5.94,5.94,0,0,0,7.45,1c2-1.46,2.78-4.43,2-7.45-.93-3.41-3.05-5.49-5.76-5.64Zm11.63-12.73c0-4.26-2.18-7.26-5.91-8.21a2.62,2.62,0,0,0-3,.92,9.15,9.15,0,0,0,.31,11.09c1.44,1.59,3.2,2.79,5.48,2s3-2.65,3.1-4.89C319.88,526.83,319.87,526.51,319.87,526.19ZM248,540.48a34.51,34.51,0,0,0,5-1.7,2.89,2.89,0,0,0,.78-4.53c-3.13-4-7-4.14-10.5-.48a10.82,10.82,0,0,0-.93,1.1,2.43,2.43,0,0,0,.65,3.75A40.75,40.75,0,0,0,248,540.48Zm27.65,19.95a7.25,7.25,0,0,0,6.16-3.14,2.11,2.11,0,0,0-1.2-3.38,34.66,34.66,0,0,0-6.6-.23c-2.27.14-3.83,1.22-3.76,2.3.12,1.8,1.41,2.8,2.85,3.53A16.56,16.56,0,0,0,275.69,560.43Z"/><path class="cls-8" d="M560.68,585.2c-1.27.07-2.55.2-3.83.2H478.06c-1.12,0-2.23-.12-3.35-.18a7.47,7.47,0,0,0,2.14-6.07,38.35,38.35,0,0,1,.15-4.28,6.92,6.92,0,0,0,3.68-3.48,3.25,3.25,0,0,0-1.42-4.79A9,9,0,0,0,477,566c-.07-1.28-.2-2.55-.2-3.83q0-26.94,0-53.88c0-1.28.13-2.56.2-3.83a108.83,108.83,0,0,1,19.66-4.25,95.29,95.29,0,0,1,13.41-.08l1.93.3,5.21,1.49-5.44,6.31A47.89,47.89,0,0,0,500.66,527a11.05,11.05,0,0,0-.48,1.86c-.72,4.73,1.76,6.78,6.19,4.94a17,17,0,0,0,9.15-8.05c1-1.81,2.15-3.55,3-5.44,1.38-3.25,2.51-6.6,3.8-9.89a30.87,30.87,0,0,1,2-4.38c2.1-3.51,5-4.87,9-4a55.4,55.4,0,0,1,8.72,2.72,53.32,53.32,0,0,0,24.53,3.75c.68-.05,1.59-.52,2.12.71a23.7,23.7,0,0,0-6.6,16.44l.18,2.79c.31,4.12,1.91,7.81,3.83,11.4.29,1.24.66,2.47.86,3.73.39,2.39-.28,3.52-2.65,4.36a22.6,22.6,0,0,1-3.72.88c-2.37.39-4.75.7-7.12,1-2.6-.42-5,.43-7.43,1.15s-4.67,1.22-6.35,3.16a2,2,0,0,0,.17,3,8.93,8.93,0,0,0,2.53,1.3,16.53,16.53,0,0,0,7.14.4A108,108,0,0,0,566.28,555c1.16-.35,2.36-1.09,3.68-.07a13.22,13.22,0,0,1-2,6.76,43.46,43.46,0,0,1-6.68,8.77c-4,4.37-8.76,5.63-14.39,4-2.46-.72-4.93-1.4-7.43-2A44.21,44.21,0,0,0,526.64,571a15.23,15.23,0,0,0-3.74.68c-1.67.54-1.95,2-.77,3.42a7.19,7.19,0,0,0,1.36,1.34c6.15,4.19,12.88,6.46,20.38,5.66,6-.65,11.39-3.13,16.47-6.31,1-.64,2.09-1.21,3.52-2C563.91,578.26,561.82,581.6,560.68,585.2Zm-32.46-62.8c.1.56.18,1.2.34,1.82.75,2.84,3,3.91,5.53,2.45a13.07,13.07,0,0,0,6.62-10.06,4.21,4.21,0,0,0-1.58-3.85c-2.9-2.59-6.53-2.08-8.55,1.27C529.06,516.57,528.61,519.44,528.22,522.4Zm-38.6,30.52a5.25,5.25,0,0,0,4.49-2.89,8.71,8.71,0,0,0,.78-7.42,5.15,5.15,0,0,0-8.85-2,8.74,8.74,0,0,0-2.08,8.5C484.56,551.54,486.44,552.87,489.62,552.92Zm-.38-29.35a30,30,0,0,0-1.15-3.65c-.88-2-2.35-2.49-4.3-1.76a8.79,8.79,0,0,0-4.74,11.52,4.12,4.12,0,0,0,5.56,2.13C488,530.34,488.89,527.36,489.24,523.57Zm61.1,16.78a31.43,31.43,0,0,0,4.54-1.4,2.69,2.69,0,0,0,.87-4.41c-.73-.85-1.61-1.56-2.41-2.35a4,4,0,0,0-5.29-.56,16.44,16.44,0,0,0-3.43,2.59,2.83,2.83,0,0,0,.63,4.54A10,10,0,0,0,550.34,540.35Zm-28.05,13.06c-1.65.12-2.77.18-3.89.29a3.44,3.44,0,0,0-.91.29,2.11,2.11,0,0,0-1,3.19c2.64,4,7.31,4.34,10.68.83,1.44-1.49,1.19-3.11-.72-3.73A32.39,32.39,0,0,0,522.29,553.41Z"/><path class="cls-9" d="M722.79,408.46c5.26-.46,10.53-.86,15.79-1.4a111.61,111.61,0,0,0,21.17-4.2,47.46,47.46,0,0,0,14.44-7.42c.85,5,1.95,10.05,2.48,15.13a170.2,170.2,0,0,1-.54,37.41c-1,8.27-2.12,16.51-3.87,24.65a6.84,6.84,0,0,0-.16,2.38c1,6.54.69,13.09.32,19.64q-1.12,10.77-2.23,21.53c-1.37,13.41-2.57,26.84-4.76,40.15a71.71,71.71,0,0,0-.84,17.34,12.42,12.42,0,0,1,3.11,2c.68.77.78,2.05,1.13,3.1v6.07c-3.27.8-8.11.9-13.84.29-.91-2,.24-4.29-.33-6.4.56-2,1.18-4,3.32-4.89-.23-1.5-.38-2.77-.63-4-2-10.22-4.15-20.43-6.11-30.66q-5.18-26.91-10.2-53.87c-1.09-5.83-1.7-11.76-3.1-17.51-2.34-9.65-5.15-19.17-7.77-28.81l-1.46.13a12.41,12.41,0,0,0-.15-6.54c-1.14-4-2.3-8-3.26-12S722.74,412.68,722.79,408.46Z"/><path class="cls-10" d="M511.79,508.23l5.44-6.31L512,500.43a1.13,1.13,0,0,0-.25-.8c.06-6.18.15-12.37.18-18.55,0-4.28,0-8.57-.06-12.85,3.06-.55,4.86,1.29,6.16,3.56a41,41,0,0,1,2.34,5.77c.9,2.38,1.66,4.84,2.69,7.17.92,2.07,2.25,3.89,4.66,4.49.57,1.58,1.44,2.79,3.34,2.78s2.73-1.24,3.22-2.86c2.54-.82,3.75-2.92,4.64-5.16a79.13,79.13,0,0,0,2.53-7.72c.79-2.76,1.31-5.6,2.15-8.34s1.73-5.52,4.21-7.34a4.39,4.39,0,0,0,5.69-.09,9.11,9.11,0,0,1,3.75,4.25,38.21,38.21,0,0,1,1.86,4.42c1,2.7,1.78,5.48,2.83,8.15s2,5.46,4.61,7.11c2.07,3.91,2.4,4,6.39,2.32,2.47,1.74,3.69,4.39,4.95,7,1.41,2.88,2.67,5.84,4.11,8.7,1,2,2.09,4,4.33,4.95.4,1.22.8,2.54,2.22,2.83a5.19,5.19,0,0,0,2.73-.22c1.36-.54,1.39-2,1.65-3.2,1.88-1.22,2.55-3.25,3.23-5.18.89-2.56,1.56-5.2,2.29-7.81,1-3.53,1.82-7.11,3-10.59,1-3,2.1-6.06,4.92-8a4.77,4.77,0,0,0,5.68-.06c2,1,2.92,2.9,3.65,4.84s1.36,4.24,2,6.36c.85,2.73,1.57,5.51,2.57,8.19s2.21,5,5,6.12a7.08,7.08,0,0,0,.89,1.6q2.61,2.65,5.18,0a8,8,0,0,0,.93-1.59c2.34-1.07,3.6-3.12,4.51-5.35.84-2.06,1.46-4.21,2.12-6.34.76-2.44,1.34-4.93,2.21-7.32s1.86-4.44,4.21-5.58c2,1.77,4.06,1.2,6.09,0,2.41.5,3.74,2.24,4.8,4.23.89,1.67,1.64,3.41,2.53,5.09,1.72,3.28,4.23,5.47,8.13,5.6.11,2.72.24,5.44.31,8.16.12,4.65.2,9.3.3,14-.11,2.71-.16,5.43-.35,8.14-.21,2.94-1.61,4.28-4.56,4.52-.64,0-1.28,0-1.92,0L562,525.73a23.7,23.7,0,0,1,6.6-16.44c-.53-1.23-1.44-.76-2.12-.71a53.32,53.32,0,0,1-24.53-3.75,55.4,55.4,0,0,0-8.72-2.72c-4-.91-6.86.45-9,4a30.87,30.87,0,0,0-2,4.38c-1.29,3.29-2.42,6.64-3.8,9.89-.81,1.89-2,3.63-3,5.44-2.57-1-3.48-3-3.52-5.66C512,516.16,511.86,512.19,511.79,508.23Z"/><path class="cls-7" d="M105.58,416.91c-8.38,2.07-16.81,2-25.34,1A235.55,235.55,0,0,1,43,410.39a100,100,0,0,1-18.23-7.46,2.56,2.56,0,0,1-.47-2.67c1-3,1.77-6.13,2.79-9.16,2.19-6.51,4.5-13,6.7-19.48.43-1.29,1.44-2.53.69-4.05l-.11,0c1,.11,1-.72,1.3-1.31,11,7,23.13,9.2,35.85,7.93,15.32-1.54,25.51-10,30.2-23.73.47-1.36.85-2.75,1.27-4.13L113.19,357c-.51,4.29-1,8.59-1.53,12.89q-2.47,21.75-4.93,43.49C106.59,414.63,106.76,416,105.58,416.91Z"/><path class="cls-11" d="M722.79,408.46c0,4.22,1.57,8.1,2.51,12.11s2.12,8,3.26,12a12.41,12.41,0,0,1,.15,6.54,16.32,16.32,0,0,1-.6,2.31c-2.52,6.07-5,12.16-7.66,18.18-1,2.26-1.69,4.39-1.17,6.92a23.07,23.07,0,0,1,.3,5.76q-.83,17.08-1.78,34.16a12.19,12.19,0,0,1-.39,1.87c-7.74-.08-15.49.55-23.2-.67l-.89-2.31c-1.54-6.88-3.06-13.76-4.64-20.63-.57-2.5-1.25-5-1.9-7.45a71,71,0,0,1-2.48-20c.45-17.32.64-34.66.93-52a122.33,122.33,0,0,0,18.33,2.94,1.87,1.87,0,0,0,2.82.16Z"/><path class="cls-9" d="M732.69,282.68a70.12,70.12,0,0,1-1.86,7.92,19.79,19.79,0,0,1-9.43,11.13c-4.15,2.24-5.78,6-5.43,10.36.53,6.55,1.59,13.05,2.47,19.57q2.17,16.2,4.39,32.41c.46,3.34.82,6.69,1.36,10a6.52,6.52,0,0,1-.37,3.74q-4.5,10.89-9,21.79a10.32,10.32,0,0,1-1.26,1.76c-.61-1.25-1.15-2.22-1.56-3.23-2.68-6.53-5.3-13.09-8-19.59a12.21,12.21,0,0,1-.8-6.53c1.55-12.41,2.89-24.85,4.34-37.27.8-6.85,1.67-13.69,2.51-20.54.31-2.56.51-5.07-.64-7.55-.61-1.33-1.13-2.54-2.59-3.25-3.07-1.5-4.29-4.24-4.36-7.49s0-6.4.09-9.61c1.1-3,3.4-4.34,6.48-4.55-.2.77-.15,1.85-.64,2.23-2,1.51-1.85,3.6-2,5.66a25.17,25.17,0,0,0,0,2.88c.24,5.34,3.22,7.75,8.58,7,8-1.19,13.31-8.61,12.29-17.26l-3.44-.82c-1.06-4.63-1-9.1-1.16-13.64.87-.47,1.59-.78,2.23-1.22a10.48,10.48,0,0,0,2.23-1.77,3,3,0,0,0-1.79-5.1c-.62-.12-1.28,0-1.91-.11s-1.52-.09-1.73-.46c-1.23-2.22-3.46-2-5.43-2.36-4.18-.75-8.05-2.06-11-5.4-.12-.14-.53,0-1-.06-.72,2.54-1.45,5.13-2.17,7.71-4.35-6.73-4.4-13.9-2-21.21A9.86,9.86,0,0,1,709,230.7a8.63,8.63,0,0,1,7.8,2.83c1.28,1.43,2.38,3,3.52,4.56a8.27,8.27,0,0,0,5.47,3.57,23.26,23.26,0,0,1,4.61,1.3c6.81,2.6,10.11,7.61,9.66,14.9a23.8,23.8,0,0,1-9,17.9c-1.12.9-2.31,1.72-3.77,2.8.61.39,1,.85,1.5.93A5,5,0,0,1,732.69,282.68Z"/><path class="cls-12" d="M286,263.16H135.6c-1.44,0-2.88-.12-4.33-.18-.06-2.89-.13-5.77-.16-8.66a7.66,7.66,0,0,1,.21-1.91,4.24,4.24,0,0,1,4-3.48c1.11-.1,2.24,0,3.37,0H279c.8,0,1.6,0,2.41,0,3.31.15,4.79,1.44,4.86,4.64S286.1,260,286,263.16ZM278.4,253a3.11,3.11,0,0,0-3.08,3,2.77,2.77,0,0,0,2.53,2.91,3,3,0,0,0,3.35-2.6A3.19,3.19,0,0,0,278.4,253Zm-22.55,5.74a2.8,2.8,0,0,0,3-2.46,3.07,3.07,0,0,0-2.93-3.15,2.93,2.93,0,0,0-2.71,2.81A2.64,2.64,0,0,0,255.85,258.71Zm-21.8,0a2.64,2.64,0,0,0,2.66-2.71,3.24,3.24,0,0,0-3.12-2.94,3,3,0,0,0-2.61,2.85A2.75,2.75,0,0,0,234.05,258.67Z"/><path class="cls-12" d="M666.94,263.12H512.31c-.1-3.2-.37-6.4-.24-9.58s1.79-4.48,5-4.62c1,0,1.92,0,2.88,0H659.37c1,0,1.93,0,2.89,0,3.31.14,4.79,1.42,4.88,4.62S667,259.92,666.94,263.12ZM659.22,253a3.1,3.1,0,0,0-3,3,3,3,0,0,0,5.89.14A3.14,3.14,0,0,0,659.22,253Zm-22.32.14a2.9,2.9,0,0,0-2.79,2.73,2.65,2.65,0,0,0,2.55,2.88,2.81,2.81,0,0,0,3.07-2.38A3,3,0,0,0,636.9,253.1Zm-22,5.57a2.65,2.65,0,0,0,2.67-2.71,3.26,3.26,0,0,0-3.12-2.94,3,3,0,0,0-2.62,2.85A2.76,2.76,0,0,0,614.94,258.67Z"/><path class="cls-3" d="M476.6,482.33H321.85c-.07-3.21-.25-6.42-.18-9.62s1.63-4.65,4.76-4.85c1.12-.08,2.25,0,3.38,0h138.8c1.28,0,2.57-.07,3.85.05a4.3,4.3,0,0,1,4.28,4.34C476.86,475.6,476.66,479,476.6,482.33Zm-26.93-7.41a3.66,3.66,0,0,0-3.15-3.12,3.18,3.18,0,1,0,.15,6.36A3.59,3.59,0,0,0,449.67,474.92Zm18.8,2.94a3,3,0,0,0,3.18-2.8,3.22,3.22,0,0,0-3-3.08,3.3,3.3,0,0,0-2.91,2.65A3,3,0,0,0,468.47,477.86ZM424.22,472a3.32,3.32,0,0,0-3,3.15,3.14,3.14,0,0,0,2.79,2.77,2.79,2.79,0,0,0,2.8-3.12A2.74,2.74,0,0,0,424.22,472Z"/><path class="cls-2" d="M667,440c-1.76.05-3.52.14-5.29.14q-71.73,0-143.46,0c-2.08,0-4.15-.24-6.22-.37,0-2.57-.07-5.14,0-7.71a10.85,10.85,0,0,1,.37-2.84,3.75,3.75,0,0,1,3.41-3,37.9,37.9,0,0,1,3.85-.12H659.9c1,0,1.94,0,2.89,0,2.74.23,4.2,1.51,4.31,4.21C667.23,433.61,667.07,436.82,667,440Zm-4.93-6.95a3,3,0,0,0-3.22-2.83,2.94,2.94,0,0,0-2.65,3.36,2.77,2.77,0,0,0,2.95,2.53A2.81,2.81,0,0,0,662.1,433.08Zm-47.58,3a2.86,2.86,0,0,0,3.16-2.79,2.82,2.82,0,0,0-2.93-3,2.79,2.79,0,0,0-2.9,2.56A2.83,2.83,0,0,0,614.52,436.06Zm22.23,0a2.84,2.84,0,0,0,3-2.89,2.93,2.93,0,0,0-2.69-2.77,2.83,2.83,0,0,0-3,2.92A2.73,2.73,0,0,0,636.75,436Z"/><path class="cls-13" d="M251.92,551l1.7.51-.13-.06a43.3,43.3,0,0,1,5.09,2.57,2.1,2.1,0,0,1-.4,3.61,13.56,13.56,0,0,1-8.85,1.36,105.91,105.91,0,0,1-16.86-3.79c-1.19-.36-2.41-.6-4-1a10.58,10.58,0,0,0,0,2.56c2,7.09,6.46,12.45,12.26,16.75a9,9,0,0,0,6.87,1.59c2.52-.41,5-1,7.49-1.66,5.13-1.36,10.28-2.53,15.62-2.44a25.05,25.05,0,0,1,3.36.21,3.37,3.37,0,0,1,3,2.08c-.3,2-1.75,3.08-3.25,4-7.6,4.53-15.62,6.52-24.38,3.83a46,46,0,0,1-10.89-5l-4.06-2.52c0,4.53,2,8,3.28,11.63l-16.37.16c-1.5-1.42-3.13-2.72-4.48-4.28A126.68,126.68,0,0,1,202.7,561.3a18.4,18.4,0,0,0-1.42-1.9c-.49-1.19-1-2.37-1.45-3.56-1.55-3.88-3-7.81-2.79-12.09.72-6.87,4.44-10.58,11.42-11.31a27.16,27.16,0,0,1,11.85,1.5,52.56,52.56,0,0,1,12,6c-.33,1.38-.71,2.74-1,4.13a3.05,3.05,0,0,0,1.74,3.52,17.82,17.82,0,0,0,4,1.24c2.63.47,5.29.76,7.94,1.13l4.56,5.4C251.53,554.18,251.12,552.28,251.92,551Z"/><path class="cls-8" d="M767.24,339.05c-4.18-2-8.4-3.88-12.52-6a51.44,51.44,0,0,1-6.94-4.2,16.51,16.51,0,0,1-6.73-11.19,44,44,0,0,1-.7-5.69q-.2-8.14-.1-16.28a35.45,35.45,0,0,1,.78-5.67,4.3,4.3,0,0,1,3.76-3.79c2.15,1.05,4.37,2,6.42,3.17,14.86,8.73,29.06,18.47,43.24,28.25a9.63,9.63,0,0,1,.93,1v4.42c-.24.21-.6.38-.69.63a22.48,22.48,0,0,1-4.82,7.56c-1.06,1.16-1.8,2.61-2.75,3.88-1.8,2.39-3.64,4.75-5.47,7.13-3.5,1.15-3.51,1.16-6.56-.07Z"/><path class="cls-12" d="M286,352l-124.69,0c-1.12,0-2.24,0-3.36-.07,2-4.38,4.07-8.77,6.16-13.12.25-.52.87-.87,1.32-1.29,1.77,0,3.53.09,5.29.09H277.57c1.28,0,2.57-.05,3.84,0,3.22.18,4.75,1.58,4.82,4.74S286.1,348.8,286,352Zm-27.17-7A3,3,0,0,0,256,342a2.84,2.84,0,0,0-2.75,2.67,2.75,2.75,0,0,0,2.38,3A2.9,2.9,0,0,0,258.85,345Zm22.31,0a2.93,2.93,0,1,0-5.84-.23,2.93,2.93,0,0,0,5.84.23Zm-44.41-.16a3.32,3.32,0,0,0-3.06-3.08,3,3,0,0,0-2.76,2.79,3,3,0,0,0,2.7,3.32A3.31,3.31,0,0,0,236.75,344.87Z"/><path class="cls-14" d="M30.18,481c8.7,4.14,18,5.77,27.48,6.9.79.09,1.56.24,2.34.36-.6,5.25-1.13,10.51-1.82,15.75-1.43,10.8-3,21.6-4.44,32.39-1.55,11.27-3.14,22.54-4.65,33.82a37.77,37.77,0,0,0,0,4.76l-1.77,3.51c-3.11.51-4.43-.9-4.81-3.5a57.19,57.19,0,0,0-.94-13.83c-1.38-8.22-3.18-16.36-4.59-24.56-1.66-9.63-3.15-19.29-4.62-29Q31,499.1,30,490.5A25,25,0,0,1,30.18,481Z"/><path class="cls-15" d="M197,543.75c-.16,4.28,1.24,8.21,2.79,12.09.47,1.19,1,2.37,1.45,3.56a3.13,3.13,0,0,0-2,3c.22,7.64-.86,15.33,1,22.89-3.15.09-6.31.22-9.47.24-5.22,0-10.44,0-15.66-.07a30.74,30.74,0,0,0-1.59-3.93c-2-3.5-5-6.24-7.86-9-4.45-4.21-9.29-7.81-15.4-9.29a4.64,4.64,0,0,1-1.2-.74c.76-.21,1.61-.27,1.89-1.22s.54-1.84.82-2.75a22.92,22.92,0,0,1,12.54-14.4A31.48,31.48,0,0,1,176.76,541a46.73,46.73,0,0,1,17,2.23A19.45,19.45,0,0,0,197,543.75Z"/><path class="cls-14" d="M70.23,488.47c3.64-.4,7.29-.76,10.93-1.23,6.24-.79,12-3.15,17.63-5.79,0,1.6.13,3.21,0,4.8q-1.18,12.44-2.5,24.87Q95.19,521.4,94,531.66c-.78,6.69-1.62,13.37-2.43,20.05-.75,6.2-1.58,12.4-2.22,18.61a49.55,49.55,0,0,0,.08,6.21c-1.72,1.13-3.12,3.19-5.79,1.84l-1.33-2.74a21.32,21.32,0,0,0,.4-2.84,81.45,81.45,0,0,0-1.49-16.7q-3.28-17-6.32-34c-1.32-7.4-2.59-14.81-3.57-22.26C70.84,496.11,69.62,492.37,70.23,488.47Z"/><path class="cls-8" d="M113.19,357,103,346.35a39,39,0,0,0,.25-13.8c-.7-4.89-1.5-9.77-2.25-14.65-.14-.95-.23-1.9-.29-2.86a2.43,2.43,0,0,1,1.82-2.49l3.32-1.15a17.32,17.32,0,0,1,7.94,5.06c2.22,2.26,4.21,4.75,6.26,7.17,3.28,3.88,6.49,7.82,9.83,11.66a32.1,32.1,0,0,0,3.57,3.08c.06.31,0,.72.2.92,3.49,4,7,7.87,11.48,10.82a13.06,13.06,0,0,1-1.23,8.82,29.27,29.27,0,0,1-5.52,8.33c-1.28.85-2.6,1.66-3.84,2.58s-2.33.4-3.48,0A180,180,0,0,1,113.19,357Z"/><path class="cls-7" d="M149.06,562.52a4.64,4.64,0,0,0,1.2.74c6.11,1.48,11,5.08,15.4,9.29,2.89,2.75,5.85,5.49,7.86,9a30.74,30.74,0,0,1,1.59,3.93H138.05q-6.5,0-13-.06c-1.25,0-2.51-.15-3.7-.23-1.55-2.05-1.48-4.4-2.18-6.51.32-2.7.65-5.39,2-7.82a18.88,18.88,0,0,1,13.22-9.43A27.65,27.65,0,0,1,149.06,562.52Z"/><path class="cls-14" d="M667.17,364.6a22.61,22.61,0,0,1-6.83-6.63,86.93,86.93,0,0,1-9-15.3c-3.93-8.57-7.64-17.24-11.44-25.87-.64-1.47-1.28-2.93-1.88-4.42a7.17,7.17,0,0,0-2.88-3.7c-3.27-2-4.38-4.93-3.44-8.64.66-1.66,1.26-3.33-.09-5l-4.41-3.72c0-2,.91-3.43,3-3.76,1.32.57,2.6,1.23,4,1.69,3.84,1.33,7.36,3.11,9.41,6.77l2.83-.68c.33.81,1,1.68.95,2.46a22.74,22.74,0,0,1-1.23,5.07,41.06,41.06,0,0,1-2.07,4.27c1.92,5.58,9.48,17.07,18.94,28.81.61.93,1.19,1.87,1.82,2.77,3.28,4.66,6.52,9.33,9.87,13.92a17,17,0,0,0,3,2.91,25.88,25.88,0,0,0,2.8,1.76l-4.83,4.41A9.92,9.92,0,0,1,667.17,364.6Z"/><path class="cls-14" d="M781.65,342.28c1.83-2.38,3.67-4.74,5.47-7.13,1-1.27,1.69-2.72,2.75-3.88a22.48,22.48,0,0,0,4.82-7.56c.09-.25.45-.42.69-.63,3.25,1.33,5.36,4,7.44,6.61,1.77,2.2,1.45,5,.13,7.31a100.18,100.18,0,0,1-6.74,10.5c-4.92,6.59-11,12.17-16.75,18-2.26,2.26-4.46,4.6-6.69,6.9-1.68,1.48-3.34,3-5,4.46a14,14,0,0,0-4.71,7.55,10.08,10.08,0,0,1-8.73,7.9c-2.86.45-5.75.69-8.53-.47-1.63-.67-2.34-1.73-1.79-3.41a37.23,37.23,0,0,1,2.54-5.66,43.53,43.53,0,0,1,2.74-4l-3-2.8c4.26-3.94,9-1.42,13.59-1.64a28.72,28.72,0,0,0,2.54-2.61c3.11-4.06,6.49-7.95,8.67-12.65a5.92,5.92,0,0,0,1-1c2.82-4.21,5.64-8.43,8.36-12.7A14.77,14.77,0,0,0,781.65,342.28Z"/><path class="cls-8" d="M680.57,357.36a25.88,25.88,0,0,1-2.8-1.76,17,17,0,0,1-3-2.91c-3.35-4.59-6.59-9.26-9.87-13.92-.63-.9-1.21-1.84-1.82-2.77l4.4-6.66c1.53-2.25,3-4.51,4.59-6.74,5.86-8.4,11.7-16.81,17.6-25.18a24.13,24.13,0,0,1,6.25-6.57,12.63,12.63,0,0,1-.76,2.22,34.69,34.69,0,0,0-4,13.28c-.8,7.19-1.4,14.39-2,21.59-.81,9.44-1.55,18.89-2.31,28.33C685.07,358.71,682.81,358,680.57,357.36Z"/><path class="cls-14" d="M702.09,259c.72-2.58,1.45-5.17,2.17-7.71.47,0,.88-.08,1,.06,2.91,3.34,6.78,4.65,11,5.4,2,.36,4.2.14,5.43,2.36.21.37,1.13.37,1.73.46s1.29,0,1.91.11a3,3,0,0,1,1.79,5.1,10.48,10.48,0,0,1-2.23,1.77c-.64.44-1.36.75-2.23,1.22.2,4.54.1,9,1.16,13.64l3.44.82c1,8.65-4.32,16.07-12.29,17.26-5.36.8-8.34-1.61-8.58-7a25.17,25.17,0,0,1,0-2.88c.13-2.06,0-4.15,2-5.66.49-.38.44-1.46.64-2.23.61-1.62,1.54-3.18,1.05-5.35a17.67,17.67,0,0,0-2-.45c-4-.42-4.78-1.15-5.74-5.09a26,26,0,0,1-.31-8.58C702.07,261.2,702.05,260.09,702.09,259Z"/><path class="cls-14" d="M138.39,367.26a29.27,29.27,0,0,0,5.52-8.33,13.06,13.06,0,0,0,1.23-8.82c2.12-3.18,4.27-6.33,6.34-9.53a23,23,0,0,0,1.42-2.91c2.44-1.36,3.7-3.84,5.38-5.88,2.68-3.27,5.07-6.79,7.59-10.2a4.63,4.63,0,0,0,1.19-5.54,55.45,55.45,0,0,1-1.52-5.34,2.84,2.84,0,0,0,.64-3.59c-2.53-1.1-5.33-.1-8-.68,1.25-.14,2.49-.31,3.74-.43,2.21-.2,4.41-.39,6.62-.54a4.94,4.94,0,0,1,1.84.18,3.29,3.29,0,0,0,3.14-.44c1.18-.79,2.48-1.41,3.72-2.1l3.18.08c3.8,2.2,3.8,2.2,5.28,5-.13.28-.19.73-.4.81-2.63,1-3.92,3-4.51,5.59a8.77,8.77,0,0,1-5.06,6.46,3.37,3.37,0,0,0-3.2,1.66c-2.36,4.47-4.72,8.94-7,13.43a3.84,3.84,0,0,0-.07,1.41c-.45.42-1.07.77-1.32,1.29C162,343.18,160,347.57,158,352c-1.42,2.67-2.85,5.34-4.22,8a6.32,6.32,0,0,0-.29,1.63c1.18.12,2.23.32,3.28.33,4.79,0,9.57,0,14.36,0a26.4,26.4,0,0,1,3.71.56c-1.9.05-3.8.13-5.69.13-4.91,0-9.82,0-14.73,0-2.82,0-3,.35-3.54,3.78a7.29,7.29,0,0,0-2.2.61,8.49,8.49,0,0,1-8.47.69A18.44,18.44,0,0,0,138.39,367.26Z"/><path class="cls-14" d="M25.46,355.65q4.45,4.92,8.89,9.85l0,2.09.11,0a7.85,7.85,0,0,0-1.64,1.55q-6.6,11.47-13.1,23c-.63,1.12-1.17,2.29-1.73,3.44-1.1,2.27-1.52,4.37.08,6.78a9,9,0,0,1,1.06,7.87c-.31.93-.64,2-1.71,2.07-.69.06-1.42-.52-2.17-.84a2.64,2.64,0,0,0-.72.51c-2.64,3.66-3.38,3.91-7.62,2.92a11.83,11.83,0,0,1-5.53-2.76c-1.3-1.21-1.86-2.58-1-4.31,2-4.1,4.17-8.05,8.53-10.06a5.27,5.27,0,0,0,2.82-3.09c1.51-3.88,3.06-7.76,4.42-11.7C19.32,373.88,22.37,364.76,25.46,355.65Z"/><path class="cls-12" d="M160.65,437.84a11.51,11.51,0,0,1-23,.28,11.51,11.51,0,1,1,23-.28Zm-18.24.63c1.61,2.1,2.9,3.85,5.19,4.84l8.37-8.47L153.65,433l-6.15,5.75L144.37,437Z"/><path class="cls-3" d="M160.64,474.63a11.49,11.49,0,1,1-11.31-11.44A11.42,11.42,0,0,1,160.64,474.63Zm-13.26,5.62c2.19-2,4.15-4,6.14-6,.76-.77,1.44-1.61,2.29-2.56a17.25,17.25,0,0,0-1.41-1.47c-.21-.17-.6-.12-1-.2l-5.84,5.5-3.21-1.82-1.77,2A21.47,21.47,0,0,0,147.38,480.25Z"/><path class="cls-2" d="M231.62,477.44V482a22,22,0,0,1-2.94.4q-27.7,0-55.4,0a29.34,29.34,0,0,1-3-.36v-4.5a19.53,19.53,0,0,1,2.92-.47q27.45,0,54.91,0A31.45,31.45,0,0,1,231.62,477.44Z"/><path class="cls-1" d="M217.38,440.6c.6,2,.75,3.35-.31,4.8a11,11,0,0,1-1.74.27q-21.69,0-43.38,0a5,5,0,0,1-1.26-.35c-1.06-1.41-.71-2.81-.4-4.43a12.21,12.21,0,0,1,2.71-.63q21-.06,41.93,0A16.45,16.45,0,0,1,217.38,440.6Z"/><path class="cls-1" d="M279.31,435.79H235.62c-1.36-1.56-1.12-3.07-.4-4.91a13.06,13.06,0,0,1,2.59-.5q19.27-.06,38.53,0a11.48,11.48,0,0,1,1.44.07,2.09,2.09,0,0,1,2.05,2.24A17.34,17.34,0,0,1,279.31,435.79Z"/><path class="cls-3" d="M222.93,445.57c-1.4-2-1.06-3.52-.46-5.28a24.44,24.44,0,0,1,2.83-.31q13.94,0,27.86,0h1c2.44.13,3.1.87,2.93,3.28-.11,1.59-.71,2.19-2.43,2.29-1.12.06-2.24,0-3.36,0H222.93Z"/><path class="cls-9" d="M82.31,575.63c.47,1,.93,1.9,1.34,2.74,2.67,1.35,4.07-.71,5.79-1.84l15.13,3.72.75.61c.87.75,1.74,1.56,1.29,2.84s-1.55,1.52-2.69,1.62c-1,.09-1.92.1-2.88.1-5.61,0-11.22,0-16.82,0-1.09,0-2.17-.18-3.42-.3v-6.39C81.31,577.71,81.81,576.67,82.31,575.63Z"/><path class="cls-14" d="M105.86,311.4l-3.32,1.15A9.23,9.23,0,0,1,99.4,305a27.55,27.55,0,0,1,.69-5.2,46.52,46.52,0,0,1,1.81-5c-.5-1.06-1.08-2.18-1.55-3.35a2.52,2.52,0,0,1,.48-2.68,2.64,2.64,0,0,1,3-.87c1.19.41,2.31,1,3.75,1.64l3.39-3c.68,4.37-.37,8.56-1.43,12.71-.91,3.55-2.06,4.18-5.87,4.07-.46,0-.92,0-1.59,0a25.32,25.32,0,0,0-.89,2.67,14.84,14.84,0,0,0-.2,2.33Z"/><path class="cls-3" d="M194.64,472.27v-4.73a19.2,19.2,0,0,1,2.52-.5c7.74-.39,22.12-.1,25.62.5a4.26,4.26,0,0,1,.18,4.31c-.38.23-.66.53-.93.53q-12.28.12-24.56.17C196.69,472.56,195.92,472.4,194.64,472.27Z"/><path class="cls-7" d="M236,482.06c.08-1.72.13-2.93.2-4.34a17.92,17.92,0,0,1,2.48-.47c12.24-.47,27.85-.2,31.67.54a4.17,4.17,0,0,1,0,4.16,7.34,7.34,0,0,1-1.69.43c-7.52,0-15,0-22.55.05-2.23,0-4.47,0-6.71,0C238.4,482.39,237.48,482.23,236,482.06Z"/><path class="cls-3" d="M216.6,430.22c3.85,0,7.71-.06,11.57,0,2.36,0,3.48,2.4,2.18,4.48a2.36,2.36,0,0,1-1.1.83,3.94,3.94,0,0,1-1.42.19c-7.55,0-15.1,0-22.66,0-2.52,0-3.18-.8-3-3.17.1-1.62.7-2.29,2.42-2.31,4-.06,8,0,12,0Z"/><path class="cls-1" d="M197.85,430.72a18,18,0,0,1,.36,2.76c-.06,1.72-.64,2.41-2.29,2.42-8.31.05-16.63,0-25.26,0a17.65,17.65,0,0,1-.62-3.28,1.93,1.93,0,0,1,2-2.22c.63-.07,1.28-.06,1.92-.07,6.88,0,13.77,0,20.66,0A31.62,31.62,0,0,1,197.85,430.72Z"/><path class="cls-12" d="M152.9,337.67a23,23,0,0,1-1.42,2.91c-2.07,3.2-4.22,6.35-6.34,9.53-4.45-2.95-8-6.86-11.48-10.82-.18-.2-.14-.61-.2-.92,1.25-1,2.73-.72,4.14-.72C142.7,337.63,147.8,337.66,152.9,337.67Z"/><path class="cls-12" d="M250.4,467.41v4.51c-3.53.86-13.54,1.06-22.29.47a9.11,9.11,0,0,1-.73-2.46c-.06-2,.55-2.61,2.43-2.75.63-.05,1.27,0,1.91,0,5.11,0,10.21,0,15.32,0C248,467.16,248.91,467.29,250.4,467.41Z"/><path class="cls-9" d="M42.48,575c.38,2.6,1.7,4,4.81,3.5L49.06,575a2.58,2.58,0,0,1,2.79,2,16.21,16.21,0,0,0,.7,1.74v6.36c-4.39.7-8.63.25-13.1.35-.73-2.36.14-4.6-.33-6.73.22-.57.49-1.13.66-1.71A2.61,2.61,0,0,1,42.48,575Z"/><path class="cls-7" d="M190,468.1a18.51,18.51,0,0,1,.3,2.62,1.73,1.73,0,0,1-1.78,1.86c-5.9,0-11.8.29-17.55-.13a4,4,0,0,1-.55-4.19c.31-.25.55-.6.8-.6q8.87-.11,17.73-.12C189.24,467.54,189.52,467.82,190,468.1Z"/><path class="cls-16" d="M527.74,489.22c-2.41-.6-3.74-2.42-4.66-4.49-1-2.33-1.79-4.79-2.69-7.17a41,41,0,0,0-2.34-5.77c-1.3-2.27-3.1-4.11-6.16-3.56,0-.91.05-1.81.08-2.72,4.76.27,7.52,3.14,9.19,7.27.84,2.06,1.34,4.26,2.13,6.35,1.11,2.95,1.79,6.19,4.81,8Z"/><path class="cls-17" d="M666.85,491c-3.9-.13-6.41-2.32-8.13-5.6-.89-1.68-1.64-3.42-2.53-5.09-1.06-2-2.39-3.73-4.8-4.23.08-.84.15-1.69.23-2.54,3.25.62,5.35,2.68,6.83,5.49.89,1.69,1.67,3.45,2.59,5.12,1.29,2.35,3,4.14,6,4.07C667,489.14,666.91,490.07,666.85,491Z"/><path class="cls-16" d="M511.77,499.63a1.13,1.13,0,0,1,.25.8l-1.93-.3Z"/><path class="cls-10" d="M476,177.27c-2.08-.08-4.16-.22-6.24-.23H330.32c-2.57,0-5.13.11-7.69.17a11.14,11.14,0,0,1,2.24-.7c1.28-.12,2.57,0,3.86,0q70.59,0,141.2,0C472,176.49,474.12,175.89,476,177.27Z"/><path class="cls-10" d="M480.87,181.08a.77.77,0,0,1-.58-.62A.81.81,0,0,1,480.87,181.08Z"/><path class="cls-18" d="M569.53,307.76H545c-1.12,0-2.25,0-3.36-.08a2,2,0,0,1-2-2.21,2,2,0,0,1,1.82-2.38,19.19,19.19,0,0,1,2.4-.11h51.46a21.48,21.48,0,0,1,2.41.09c1.57.17,2.48,1.15,2.38,2.45a2.24,2.24,0,0,1-2.2,2.13c-1.28.12-2.56.11-3.85.11Z"/><path class="cls-18" d="M606.17,335.74q12,0,24.06,0a24.34,24.34,0,0,1,3.82.22,2.05,2.05,0,0,1,1.72,2,2.26,2.26,0,0,1-1.91,2.39,15.82,15.82,0,0,1-2.39.14q-25.74,0-51.48,0a13.65,13.65,0,0,1-1.92-.1,2.35,2.35,0,0,1,.2-4.61c1.28-.1,2.56-.08,3.85-.08Z"/><path class="cls-18" d="M585,291.38h-14.9c-1.12,0-2.24,0-3.36-.06a1.85,1.85,0,0,1-2-1.71,2.29,2.29,0,0,1,1.53-2.66,12.32,12.32,0,0,1,2.84-.33q16.58,0,33.15,0a15.34,15.34,0,0,1,1.92.09,2,2,0,0,1,1.9,2.32,2,2,0,0,1-1.91,2.28c-1.12.1-2.24.08-3.36.08Z"/><path class="cls-18" d="M631.64,295.09c1.35,1.62.75,3.29.09,5L597.15,300a38.73,38.73,0,0,1-4.31-.17,2.35,2.35,0,0,1-2.05-2.31,1.83,1.83,0,0,1,1.48-2.12c1.43-.13,2.87-.17,4.31-.17Q614.12,295.12,631.64,295.09Z"/><path class="cls-18" d="M552.09,335.77c5.93,0,11.86,0,17.79,0,1.93,0,2.64.93,2.48,2.72a1.91,1.91,0,0,1-1.77,1.92,13.65,13.65,0,0,1-1.92.1q-16.59,0-33.19,0a17.6,17.6,0,0,1-1.92-.07c-1.57-.18-2.47-1.12-2.41-2.44a2.29,2.29,0,0,1,2.18-2.16,31.35,31.35,0,0,1,3.36-.12h15.4Z"/><path class="cls-18" d="M548.89,389.69c-5,0-9.93,0-14.9,0a26.75,26.75,0,0,1-3.35-.16c-1.14-.15-1.54-1-1.59-2.06-.07-1.39.53-2.29,1.72-2.44a25.13,25.13,0,0,1,2.88-.12q15.38,0,30.76,0a15.45,15.45,0,0,1,3.33.28,2.21,2.21,0,0,1-.13,4.24,18.58,18.58,0,0,1-3.34.25C559.15,389.7,554,389.69,548.89,389.69Z"/><path class="cls-18" d="M602.78,373.3H588.33c-1.12,0-2.25,0-3.37-.08a1.82,1.82,0,0,1-1.81-1.85,2.29,2.29,0,0,1,1.68-2.58,15.14,15.14,0,0,1,2.86-.26H619a14.81,14.81,0,0,1,2.4.15,2.22,2.22,0,0,1,1.89,2.39,2,2,0,0,1-1.74,2,20.8,20.8,0,0,1-3.35.22C613.05,373.31,607.91,373.3,602.78,373.3Z"/><path class="cls-18" d="M580,397.49c-6.42,0-12.83,0-19.24,0a19.73,19.73,0,0,1-3.35-.24,1.56,1.56,0,0,1-1.22-1.79,1.62,1.62,0,0,1,1.3-1.75,12.69,12.69,0,0,1,2.38-.21h40.41a16,16,0,0,1,2.39.17,1.78,1.78,0,0,1,1.45,2.11,1.63,1.63,0,0,1-1.53,1.56c-1.27.11-2.55.15-3.83.15Z"/><path class="cls-19" d="M572.91,311.78c1.08,1.51,1.07,2.68.33,3.86-.3.18-.56.48-.83.48-2.72.1-5.43.18-8.15.19q-11.53,0-23.07,0c-1.12,0-2.25,0-3.37-.06a2.33,2.33,0,0,1-.12-4.58,15.34,15.34,0,0,1,1.92-.07q15.61,0,31.24,0C571.49,311.62,572.13,311.71,572.91,311.78Z"/><path class="cls-18" d="M563.85,332H548c-1.12,0-2.25,0-3.37-.07s-1.88-.82-1.79-1.79a2.06,2.06,0,0,1,1.78-2,15.22,15.22,0,0,1,2.87-.17h34.17a16.18,16.18,0,0,1,2.87.22,1.86,1.86,0,0,1,0,3.53,19.54,19.54,0,0,1-3.34.24C575.4,332,569.63,332,563.85,332Z"/><path class="cls-18" d="M559.17,381.1c-5.29,0-10.58,0-15.86,0a16.92,16.92,0,0,1-3.34-.26c-.89-.17-1.22-.94-1.17-1.83a1.6,1.6,0,0,1,1.35-1.7,19.67,19.67,0,0,1,2.87-.19q16.35,0,32.69,0a21.17,21.17,0,0,1,2.87.18A1.6,1.6,0,0,1,580,379a1.7,1.7,0,0,1-1.58,2c-1.11.11-2.24.13-3.36.14Z"/><path class="cls-19" d="M572.65,364.85v-3.57a13.12,13.12,0,0,1,2.72-.58c8.15-.05,16.29,0,24.44,0a11.4,11.4,0,0,1,1.43.06,1.91,1.91,0,0,1,1.79,1.89,2.19,2.19,0,0,1-1.58,2.59,10,10,0,0,1-1.9.18c-8,0-16,0-23.95,0A17.35,17.35,0,0,1,572.65,364.85Z"/><path class="cls-18" d="M573.39,295.21h11c2.37,0,2.68,1.53,2.33,3.19-.11.5-.75.94-1.22,1.31a1.55,1.55,0,0,1-.92.19q-10.77,0-21.54,0a4,4,0,0,1-1.84-.44,2.31,2.31,0,0,1-1.16-2.42,1.78,1.78,0,0,1,1.85-1.8c3.83-.05,7.66,0,11.49,0Z"/><path class="cls-8" d="M615.5,356.61c-4.59.47-21.08.42-24.87-.08-.19-.25-.52-.48-.54-.74-.07-.92,0-1.84,0-2.92a13.21,13.21,0,0,1,2.47-.52c6.9,0,13.8-.06,20.7,0C616.35,352.35,616.78,353.24,615.5,356.61Z"/><path class="cls-19" d="M614.72,328.27a9.39,9.39,0,0,1,.44,2.05c0,1.53-.58,2.13-1.86,2.29a7.72,7.72,0,0,1-1,.05c-7,0-14,0-21.07-.07a4,4,0,0,1-.94-.25c-1.24-1.19-1-2.5-.48-3.82C593.47,327.82,608.29,327.66,614.72,328.27Z"/><path class="cls-19" d="M545.65,356.68V353a8.15,8.15,0,0,1,2-.57c6.57-.05,13.14-.05,19.7,0a2.61,2.61,0,0,1,2.5,1.08,2.23,2.23,0,0,1-1.72,3.51c-5.12.08-10.25.07-15.37,0A32,32,0,0,1,545.65,356.68Z"/><path class="cls-18" d="M625.89,381.1c-3.84,0-7.69,0-11.54,0a19.67,19.67,0,0,1-2.87-.19,1.88,1.88,0,0,1-.16-3.55,10,10,0,0,1,2.38-.24c7.85,0,15.71,0,23.56,0a14.06,14.06,0,0,1,1.45.06c1.48.15,2.16.86,2,2.09a1.79,1.79,0,0,1-1.88,1.77c-1.44.08-2.89.08-4.33.08Z"/><path class="cls-19" d="M606.05,377.41a6.93,6.93,0,0,1,.56,1.83c0,1.47-.59,2.23-1.78,2.41a8.64,8.64,0,0,1-1.44.09c-5.61,0-11.22.05-16.83,0-2.91,0-3.18-.58-2.42-4.31,2.21-.69,4.61-.27,7-.34,2.56-.07,5.13-.06,7.69,0C601.17,377.12,603.57,376.79,606.05,377.41Z"/><path class="cls-19" d="M565.31,278.89c6.54,0,13.28,0,20,0,1.55,0,2.28,1,2.16,2.53a2,2,0,0,1-2.17,2.05c-6.73.05-13.47,0-20,0C563.71,281.9,563.73,280.52,565.31,278.89Z"/><path class="cls-18" d="M538.6,397.48c-3.36,0-6.72,0-10.08,0a16.93,16.93,0,0,1-2.85-.21,1.6,1.6,0,0,1-1.29-1.75,1.63,1.63,0,0,1,1.24-1.79,7.54,7.54,0,0,1,1.9-.22q10.8,0,21.6,0a5.9,5.9,0,0,1,1.88.27,1.57,1.57,0,0,1,1,1.92,2.27,2.27,0,0,1-1,1.46,6.06,6.06,0,0,1-2.35.32c-3.36,0-6.72,0-10.08,0Z"/><path class="cls-20" d="M627.07,304.05v3.12a4.48,4.48,0,0,1-1.44.61q-9.87.09-19.74.09a4,4,0,0,1-1.41-.23,1.77,1.77,0,0,1-1.07-1.94c0-.85.27-1.6,1.18-1.84a7.52,7.52,0,0,1,1.89-.23q9.16,0,18.31,0A17.34,17.34,0,0,1,627.07,304.05Z"/><path class="cls-18" d="M629.78,332c-2.55,0-5.11,0-7.66,0a7.31,7.31,0,0,1-2.34-.31,1.58,1.58,0,0,1-.93-2,2.22,2.22,0,0,1,1.06-1.4,6.26,6.26,0,0,1,2.34-.29q7.89,0,15.79,0a9.81,9.81,0,0,1,2.36.25,1.6,1.6,0,0,1,1.2,1.81c0,.87-.41,1.6-1.32,1.72a32.15,32.15,0,0,1-3.8.21c-2.24,0-4.47,0-6.7,0Z"/><path class="cls-8" d="M630.28,287.61c-2.14.33-3,1.72-3,3.76-5.57.13-11.14.25-17-.09v-3.82a11,11,0,0,1,2-.41q8.14,0,16.29,0A6.64,6.64,0,0,1,630.28,287.61Z"/><path class="cls-3" d="M538.65,348.74v-4.3H554.9a7.13,7.13,0,0,1,.63,2.13c0,1.51-.58,2.07-2,2.11-2.24.08-4.48.05-6.72.06Z"/><path class="cls-18" d="M581.61,385c2.22,0,4.45-.07,6.67,0a2.28,2.28,0,0,1-.12,4.55c-4.45.09-8.9.07-13.35,0a2.15,2.15,0,0,1-2.2-2.09,2.23,2.23,0,0,1,2.32-2.46c2.22-.11,4.45,0,6.68,0Z"/><path class="cls-8" d="M564.6,324H549c-1.06-1.27-.85-2.46-.28-3.9a10,10,0,0,1,2.15-.48c3.85-.05,7.71-.08,11.56,0C565.25,319.67,565.63,320.44,564.6,324Z"/><path class="cls-8" d="M569.26,271.19c.07,1,.15,2.08.24,3.27-2.73,1.21-5.47.5-8.11.62s-5.4,0-7.81,0a3,3,0,0,1-.63-3.81C556.3,270.41,564.79,270.34,569.26,271.19Z"/><path class="cls-18" d="M634.18,373.13c-1.91,0-3.83.09-5.74,0a2.14,2.14,0,0,1-1.79-2.43,2.09,2.09,0,0,1,1.79-2,20.73,20.73,0,0,1,3.34-.19c2.72,0,5.43,0,8.14.09,1.27.05,1.91.94,1.91,2.3s-.64,2.23-1.9,2.29c-1.92.09-3.83,0-5.75,0Z"/><path class="cls-18" d="M554.1,278.86c1.59,0,3.18-.06,4.76,0a1.77,1.77,0,0,1,1.83,1.79,2.34,2.34,0,0,1-1.17,2.41,2.81,2.81,0,0,1-1.35.39c-2.86,0-5.72.1-8.58,0-1.64,0-2.29-.87-2.24-2.43s.7-2.14,2.46-2.22c1.43-.07,2.86,0,4.29,0Z"/><path class="cls-18" d="M579.32,356.86c-1.28,0-2.56,0-3.84,0a1.84,1.84,0,0,1-2-1.7,2.41,2.41,0,0,1,1.49-2.7,3,3,0,0,1,.92-.22c2.88,0,5.76-.06,8.63,0a2.22,2.22,0,0,1,2.09,2.23,2.25,2.25,0,0,1-2.06,2.26c-1.75.11-3.51,0-5.27,0Z"/><path class="cls-3" d="M591,279h7.49a5,5,0,0,1,.49,3.79,12.37,12.37,0,0,1-8,.05Z"/><path class="cls-18" d="M541.89,324.1h-2.83c-2.16,0-2.63-1.64-2.14-3.28a1.91,1.91,0,0,1,1.24-1.21,29.88,29.88,0,0,1,5.18,0,2,2,0,0,1,1.75,2,2.25,2.25,0,0,1-1.77,2.44A7.29,7.29,0,0,1,541.89,324.1Z"/><path class="cls-18" d="M548.52,274.88c-2,0-3.86.07-5.73,0a1.84,1.84,0,0,1-2-1.61,2.4,2.4,0,0,1,1.38-2.73,8.17,8.17,0,0,1,5.58.05C549.38,271.3,549.4,272.75,548.52,274.88Z"/><path class="cls-18" d="M528.88,311.63c.63,0,1.27,0,1.89,0a1.81,1.81,0,0,1,1.89,1.72c.14,1.27-.43,2.5-1.49,2.62a23.26,23.26,0,0,1-5.14,0c-.59-.07-1.27-.91-1.57-1.56a2,2,0,0,1,1.58-2.82,7.43,7.43,0,0,1,.94-.07h1.9Z"/><path class="cls-18" d="M565.13,364.78a27.68,27.68,0,0,1-3-.32,1.57,1.57,0,0,1-1.17-1.81c0-.86.38-1.65,1.3-1.71,1.73-.12,3.47-.07,5.21-.05a1.11,1.11,0,0,1,.82.41,4.63,4.63,0,0,1,.76,2.08c0,.41-.74,1-1.26,1.15A12.22,12.22,0,0,1,565.13,364.78Z"/><path class="cls-18" d="M530.9,344.27c.9.1,1.71.12,2.48.28a1.59,1.59,0,0,1,1.27,1.76c0,.88-.33,1.71-1.24,1.76a30.33,30.33,0,0,1-5.22-.06c-.88-.1-1.19-1.09-1-1.91a2.21,2.21,0,0,1,1-1.45A12.46,12.46,0,0,1,530.9,344.27Z"/><path class="cls-21" d="M439.64,533.76c-1.33-.89-2.35-1.63-3.43-2.3l-18.85-11.62a19.16,19.16,0,0,1-2.77-1.91,2.86,2.86,0,0,1-.5-3.91,3,3,0,0,1,3.73-1.29,19.39,19.39,0,0,1,2.54,1.36Q433.29,522,446.2,530a12.6,12.6,0,0,1,2.33,1.69,3.18,3.18,0,0,1-.08,4.35,15.61,15.61,0,0,1-2.37,1.64q-12.9,8-25.83,15.91a15.39,15.39,0,0,1-2.11,1.15,3.14,3.14,0,0,1-4.14-1.3,3,3,0,0,1,.72-3.89,23,23,0,0,1,2.79-1.87c6.29-3.88,12.58-7.73,18.86-11.62C437.41,535.39,438.39,534.64,439.64,533.76Z"/><path class="cls-21" d="M358.74,533.87c1.48,1,2.67,1.76,3.89,2.51l17.62,10.85c.95.59,1.94,1.14,2.85,1.79,1.7,1.24,2.13,3,1.19,4.6a3.29,3.29,0,0,1-4.26,1,10.3,10.3,0,0,1-1.25-.71L351.72,537.3a10.43,10.43,0,0,1-1.2-.8c-2-1.6-2.07-3.68-.17-5.28a16.89,16.89,0,0,1,2-1.34L378.17,514a18.24,18.24,0,0,1,2.55-1.34,3.25,3.25,0,0,1,3.45,1,3.31,3.31,0,0,1-.15,4,20.9,20.9,0,0,1-3.12,2.21c-6.28,3.88-12.58,7.73-18.85,11.61C361,532.19,360,533,358.74,533.87Z"/><path class="cls-21" d="M407,509.69c-.77,4.13-1.57,8.38-2.37,12.63L398,557.69a17,17,0,0,1-.36,1.89,3.21,3.21,0,0,1-6.31-1.09,13.62,13.62,0,0,1,.34-1.89q4.19-22.41,8.38-44.83c.21-1.1.42-2.21.71-3.29.57-2.11,2-3.22,3.74-2.88S407.23,507.46,407,509.69Z"/><path class="cls-6" d="M321.48,574.92a6.64,6.64,0,0,1-3.69-3.37c-1.25-2.22-.83-3.76,1.45-5a8.37,8.37,0,0,1,2.23-.54C321.47,569,321.48,571.94,321.48,574.92Z"/><path class="cls-21" d="M477,566a9,9,0,0,1,2.24.6,3.25,3.25,0,0,1,1.42,4.79,6.92,6.92,0,0,1-3.68,3.48Z"/><path class="cls-20" d="M475.16,304.48V405.72c0,1.44,0,2.9-.12,4.33a2.68,2.68,0,0,1-2.47,2.55,34.6,34.6,0,0,1-4.32.17H330.85c-1.12,0-2.25,0-3.37,0-3.22-.14-4-.9-4.19-4-.05-.8,0-1.6,0-2.41q0-102,0-203.92c0-6,.28-6.34,6.17-6.34H468.78a25.87,25.87,0,0,1,3.84.19,2.71,2.71,0,0,1,2.43,2.59c.13,1.6.11,3.21.11,4.82ZM410.5,232.76c-1.37-.08-2.63-.22-3.9-.22H354.16a21.28,21.28,0,0,0-2.88.11c-1.78.23-2.59,1.39-2.53,3.44.05,1.81.81,2.89,2.4,3.07a38.89,38.89,0,0,0,4.32.13H405a31.36,31.36,0,0,0,3.36,0,18.22,18.22,0,0,0,2.72-.71C411.34,236.62,411.78,234.9,410.5,232.76Zm.49,124c-1.35-1.18-3-.82-4.57-.83q-26,0-52,0a28.69,28.69,0,0,0-3.35.15,2.45,2.45,0,0,0-2.25,2.16c-.43,2.48.32,4.49,3.44,4.45,1,0,1.93,0,2.89,0h15.39c11.71,0,23.42,0,35.13,0,1.71,0,3.53.43,5.14-.71A7,7,0,0,0,411,356.77Zm-47.13-63.1c-.59,1.63-1.1,3-1.55,4.32s-.78,2.79-1.29,4.14-.48,2.76-1.91,4.21c-1.87-4.38-2.24-8.75-4.18-12.64-2.14-.32-4.16-.57-6.1.18-1.16,4.81-2.11,20.78-1.1,21.73a9.36,9.36,0,0,0,1.61.23,15.25,15.25,0,0,0,2.05-.28c.88-4.27.56-8.61,1.36-13.77,2.11,4.89,2.47,9.44,4.46,13.65l3.76-.35c1.2-3.78,2.3-7.3,3.44-10.81.24-.71.36-1.61,1.57-1.66.53,4.24-.05,8.6.94,12.72a4.39,4.39,0,0,0,4.29,0c.4-3.67-.49-18.7-1.3-21.56A14.83,14.83,0,0,0,363.86,293.67Zm21.47,55.5h20.23c1.12,0,2.25,0,3.37-.14a2.45,2.45,0,0,0,2.17-1.66c1.24-3.44-.25-5.69-3.83-5.85-.64,0-1.28,0-1.92,0h-40c-1,0-1.93,0-2.89.05-2.25.18-3.06,1.09-3.15,3.41-.13,3,.76,4,3.84,4.19,1,0,1.93,0,2.89,0Zm-5.79,41.47h19.28c1.12,0,2.24,0,3.36-.14a2.46,2.46,0,0,0,2.18-1.65c1.25-3.43-.25-5.7-3.82-5.86-.64,0-1.28,0-1.93,0H360.54c-1,0-1.93,0-2.89,0-2.26.19-3.06,1.08-3.15,3.4-.12,3.07.76,4,3.84,4.2,1,0,1.92,0,2.89,0ZM411,280.31a21.36,21.36,0,0,0,.32-3.14c-.1-2.07-.92-2.92-2.9-3.11-1-.09-1.92-.06-2.88-.06h-40.4c-1,0-1.93,0-2.88.06-2,.19-2.81,1-2.87,3.12a16.84,16.84,0,0,0,.5,3.17,13.45,13.45,0,0,0,2.15.38q23.31,0,46.64,0A16,16,0,0,0,411,280.31Zm-.2-61c-1.36-.13-2.46-.32-3.55-.32q-21.45,0-42.88,0a10.14,10.14,0,0,0-2.87.21,3.11,3.11,0,0,0-1.78,1.41c-1.25,2.63.09,4.88,2.9,5.12.32,0,.65,0,1,0,14.45,0,28.91,0,43.36,0,3.83,0,4.49-.79,4.35-4.57A9.91,9.91,0,0,0,410.79,219.34Zm.13,178.35c-1.53-.13-2.48-.28-3.43-.28q-21.67,0-43.36,0a17.47,17.47,0,0,0-2.4.13,2.52,2.52,0,0,0-2.28,2.14c-.58,2.81.53,4.29,3.4,4.47.8.05,1.6,0,2.41,0h40c1.13,0,2.26,0,3.37-.08a2.59,2.59,0,0,0,2.68-2.81A23.63,23.63,0,0,0,410.92,397.69ZM423,212.25c5.78,0,11.56,0,17.33,0a23.49,23.49,0,0,0,3.36-.16,2.4,2.4,0,0,0,2.19-2.21c.45-3.42-.14-5.45-4.08-5.28-.48,0-1,0-1.45,0H406.2a23,23,0,0,0-2.88.11,2.63,2.63,0,0,0-2.48,2.5,12,12,0,0,0,0,2.4,2.58,2.58,0,0,0,2.46,2.51,29,29,0,0,0,3.36.12ZM404,260.85c-1.09-.12-2.17-.35-3.26-.36q-20.68,0-41.37,0a15.89,15.89,0,0,0-2.39.13,2.6,2.6,0,0,0-2.38,2.58c-.29,2.64.72,3.84,3.44,4,.31,0,.64,0,1,0q21.17,0,42.33,0a20.3,20.3,0,0,0,3-.46C404.62,264.72,405,262.91,404,260.85Zm19.42,73.91h16.8a26.66,26.66,0,0,0,3.35-.12c1.75-.22,2.55-1.4,2.49-3.46-.06-1.8-.82-2.84-2.42-3.05a26.66,26.66,0,0,0-3.35-.12h-33.6a24.46,24.46,0,0,0-3.83.2,2.34,2.34,0,0,0-1.88,1.94c-.66,2.8.45,4.39,3.23,4.58,1,.07,1.92,0,2.88,0Zm-70.84-88.7H339c-1.12,0-2.25,0-3.36.14a2.29,2.29,0,0,0-2.15,1.68c-.68,3.07-.49,6.08,3.84,5.84.32,0,.65,0,1,0H365.8a19.28,19.28,0,0,0,2.41-.09,2.6,2.6,0,0,0,2.56-2.42,11.33,11.33,0,0,0,0-2.4,2.58,2.58,0,0,0-2.37-2.6,29.13,29.13,0,0,0-3.37-.14Zm41.61,58.78c0-6.49-3.27-10.76-8.45-11.53-6-.9-11,2.19-12.48,7.88a13.63,13.63,0,0,0,.1,7.57,10.16,10.16,0,0,0,10.9,7.46,10.27,10.27,0,0,0,9.75-9C394.1,306.33,394.1,305.36,394.14,304.84Zm15.05-1.11c.43-.58.63-.83.8-1.09,2.74-4.15,1.65-7.59-3-8.78a18.22,18.22,0,0,0-10.72.26c-.61,5.33-.5,17.9.16,21.28a20.14,20.14,0,0,0,11.8-.28c4.3-1.71,5.42-6,2.53-9.78C410.34,304.85,409.86,304.43,409.19,303.73Zm-58.31-91.48c4.18,0,8.35,0,12.53,0a13.23,13.23,0,0,0,3.34-.22,3,3,0,0,0,1.78-1.43,4.1,4.1,0,0,0-3.06-5.88,13.65,13.65,0,0,0-2.4-.11H338a15.56,15.56,0,0,0-1.93.06,2.73,2.73,0,0,0-2.79,2.73,11.24,11.24,0,0,0,.05,2.39,2.43,2.43,0,0,0,2.12,2.29,23.57,23.57,0,0,0,3.36.17C342.86,212.26,346.87,212.25,350.88,212.25ZM333.5,370.07c-.22,2.06-.65,3.9.49,5.75a11.36,11.36,0,0,0,1.93.36q16.13,0,32.25,0a9.27,9.27,0,0,0,2.22-.56c.62-2.07.79-3.9-.16-5.59C366.12,369.26,338.11,369.25,333.5,370.07Zm117.15-76.33a50.85,50.85,0,0,0-12.88.07c-.77,5-.64,18.39.21,21.87,1.35.07,2.77.17,4.19.21,1.6,0,3.21.06,4.81,0,1.39-.07,2.9.39,4.36-.89,0-.88-.11-1.92-.19-3.19-2.66-.1-5-.15-7.4-.29a4.46,4.46,0,0,1-1.34-.61c0-1.42-.61-2.86.68-4.17l6.8-.42c.8-1.6.94-2.78-.15-3.82-2.32-.74-4.81.22-7-.73-.33-2-.33-2,.33-3.64,2.43-.83,5.12.37,7.58-.91ZM333.77,334.37c1.31.15,2.4.36,3.48.37q13.46,0,26.9,0a15.18,15.18,0,0,0,1.91-.06c1.91-.22,2.77-1.22,2.81-3.21,0-2.2-.88-3.24-3.07-3.45-.48,0-1,0-1.44,0-9.29,0-18.57,0-27.86,0a14.31,14.31,0,0,0-2.62.48C333,330.43,333.13,332.13,333.77,334.37ZM450,246.06h-6.75c-1.92,0-3.85-.06-5.77.07s-2.8,1.11-2.92,3.12a9.89,9.89,0,0,0,0,1.44c.16,2,1,2.78,3.06,3,.64.06,1.29.05,1.93.05h20.72a17.15,17.15,0,0,0,2.87-.17,2.44,2.44,0,0,0,2.13-2.29c.36-3.18,0-5.31-4.2-5.21C457.36,246.14,453.66,246.06,450,246.06Zm.32,95.46h0c-3.53,0-7.06,0-10.59,0a10.52,10.52,0,0,0-2.87.19,3.2,3.2,0,0,0-1.84,1.34,4.1,4.1,0,0,0,2.83,6,15.32,15.32,0,0,0,2.88.14q9.63,0,19.26,0a12.82,12.82,0,0,0,3.34-.24,2.93,2.93,0,0,0,1.72-1.48c1.38-3.34-.16-5.82-3.66-5.9C457.67,341.45,454,341.52,450.29,341.52Zm-35.2-95.46v0c-3.69,0-7.38-.08-11.07,0-2.32.06-3.14,1-3.23,3.29a10.26,10.26,0,0,0,.1,1.92,2.47,2.47,0,0,0,2.18,2.23,14.81,14.81,0,0,0,2.4.15h18.77a11.18,11.18,0,0,0,2.39-.17,3.73,3.73,0,0,0,0-7.29,14.43,14.43,0,0,0-2.87-.18C420.87,246,418,246.06,415.09,246.06ZM451.78,383h0c-3,0-6.1,0-9.15,0a10.93,10.93,0,0,0-2.87.18,3.22,3.22,0,0,0-1.88,1.28c-1.67,3-.1,6.1,3.2,6.15,6.91.09,13.81,0,20.72,0a4.15,4.15,0,0,0,1.86-.36A2.92,2.92,0,0,0,465,389c1.4-3.3-.13-5.87-3.58-6C458.21,382.92,455,383,451.78,383Zm-16.73-6.77c5.28,0,10.07.08,14.86,0s9.86.47,14.56-.34c.34-.54.62-.79.65-1.08.56-4.31-.18-5.25-4.36-5.31s-8.33,0-12.49,0c-3.52,0-7-.06-10.57.06-2.31.07-3.09,1-3.16,3.33A23.31,23.31,0,0,0,435.05,376.22Zm29.8-95.84a18.5,18.5,0,0,0,.47-2.92c-.05-2.38-.85-3.21-3.1-3.42-.64-.05-1.29,0-1.93,0-6.89,0-13.78,0-20.68,0a10,10,0,0,0-2.86.2,3.17,3.17,0,0,0-1.8,1.4,3.35,3.35,0,0,0,2.88,5.13c.48,0,1,0,1.44,0,7.38,0,14.75,0,22.13,0A31.35,31.35,0,0,0,464.85,280.38Zm.08-61a20.13,20.13,0,0,0-2.46-.34q-11.79,0-23.57,0a13.75,13.75,0,0,0-1.92.12,2.55,2.55,0,0,0-2.29,2.13c-.6,2.78.53,4.3,3.37,4.5.32,0,.64,0,1,0h21.65a15.34,15.34,0,0,0,1.92-.07c1.76-.22,2.59-1,2.69-2.8A26.08,26.08,0,0,0,464.93,219.38Zm-.17,178.36c-1.2-.13-2.13-.32-3.07-.33-7.53,0-15.07,0-22.61,0a15.18,15.18,0,0,0-1.91.09,2.7,2.7,0,0,0-2.54,2.45c-.41,2.59.67,4,3.25,4.2.32,0,.64,0,1,0,7.38,0,14.75,0,22.13,0,3.81,0,4.46-.79,4.31-4.6A10,10,0,0,0,464.76,397.74Zm-63.47-21.89a16.61,16.61,0,0,0,2,.32q11.07,0,22.13,0a5.88,5.88,0,0,0,2.35-.29,3.18,3.18,0,0,0,1.61-1.6c.67-2.18.28-4.91-3.34-4.86-3.21.05-6.41,0-9.62,0-4,0-8-.06-12,0-2.85.07-3.61,1-3.57,3.91A14,14,0,0,0,401.29,375.85Zm63.47-115.34c-8.92,0-17.36-.26-25.8.18-.41,0-.8.44-1.15.64-.64,3.2-.59,3.2.64,5.68,1.14.07,2.4.21,3.66.22,4,0,8,0,12,0,2.55,0,5.11.06,7.66,0,2.85-.11,3.6-1,3.57-3.88A16.85,16.85,0,0,0,464.76,260.51ZM417.45,356.3a28.45,28.45,0,0,0-.21,3.75,2.5,2.5,0,0,0,2.42,2.52,23,23,0,0,0,2.88.13h13c1.28,0,2.56,0,3.85,0a8.59,8.59,0,0,0,1.89-.25c1.31-.37,2-1.67,1.83-3.52-.11-1.58-.82-2.58-2.15-2.8a17.15,17.15,0,0,0-2.87-.17c-5.61,0-11.22,0-16.84,0C420.15,356,419.06,356.14,417.45,356.3Zm.44-117.38a11.69,11.69,0,0,0,2,.34q9.62,0,19.24,0a9.44,9.44,0,0,0,1.91-.18A2.46,2.46,0,0,0,443,237.2c.72-2.75-.42-4.42-3.18-4.64-.47,0-1,0-1.44,0-5.45,0-10.9,0-16.35,0-4.57,0-5.14.78-4.53,5.54A4.47,4.47,0,0,0,417.89,238.92Zm-33.11-26.7v0c2.73,0,5.46.09,8.18,0,2-.08,2.81-1.09,2.9-3.11a9.48,9.48,0,0,0-.17-2.38,2.38,2.38,0,0,0-1.94-1.9,8.71,8.71,0,0,0-1.91-.17q-7,0-13.94,0a10.31,10.31,0,0,0-1.92.17,2.53,2.53,0,0,0-2.12,2.29,10,10,0,0,0-.09,1.44c0,2.6.82,3.59,3.32,3.7S382.22,212.22,384.78,212.22ZM421.08,383h0c-2.55,0-5.1-.06-7.64,0a3.37,3.37,0,0,0-2.14.84c-1.39,1.43-1.09,3.28-.61,5,.39,1.4,1.72,1.75,3.08,1.76,3.34,0,6.68,0,10,0,1.75,0,3.51,0,5.25-.13a2.55,2.55,0,0,0,2.49-2.44,10,10,0,0,0,.06-1.9c-.12-2-.94-3-2.88-3.11C426.18,382.94,423.63,383,421.08,383Zm-77.24-41.49c-2.41,0-4.82-.08-7.22,0s-3.34,1.09-3.37,3.67v.48c.09,2.32.89,3.23,3.14,3.41,1.12.09,2.24.05,3.37.05,3.69,0,7.38.06,11.07,0,2.81-.07,3.64-1.07,3.6-3.91,0-2.58-.85-3.55-3.37-3.66S346.25,341.54,343.84,341.54Zm78.48-47.85c-.59,6.3-.47,18.17.23,21.92a72.39,72.39,0,0,0,12.57.12,2.91,2.91,0,0,0,.05-3.88c-2.51-.72-5.33.33-8.05-.8-.07-1.75-.16-3.33-.18-4.91,0-3.7,0-7.39-.1-11.08a4.5,4.5,0,0,0-.57-1.37Zm-36.27-40v-.09c2.4,0,4.8.08,7.2,0a2.53,2.53,0,0,0,2.55-2.4,10.25,10.25,0,0,0,.07-1.92c-.11-2-.94-3.1-2.87-3.14-4.48-.11-9,0-13.45,0a3.37,3.37,0,0,0-.94.16,3.74,3.74,0,0,0,.24,7.3,13.53,13.53,0,0,0,2.39.14C382.84,253.73,384.44,253.72,386.05,253.72Zm-11.81,80.67a22.75,22.75,0,0,0,2.41.34q7.46,0,14.91,0a12.1,12.1,0,0,0,1.91-.12c1.58-.26,2.35-1.28,2.4-3.09.05-2.05-.76-3.26-2.53-3.43-1.59-.15-3.2-.11-4.8-.11-3.85,0-7.7-.06-11.54.05-2.33.07-3.13,1-3.2,3.3A17.91,17.91,0,0,0,374.24,334.39ZM411,266.87c3.54.69,6.91.41,10.24.33s6.69.73,9.83-.62c.74-3.22.7-3.22-.45-5.79-3.23-.63-6.6-.35-9.93-.27s-6.69-.73-9.86.64A7.42,7.42,0,0,0,411,266.87Zm-77-41.19c6,.14,11.89.21,17.78,0a2.54,2.54,0,0,0,2.51-2.44c.37-2.61-.68-4.11-3.27-4.15-5.27-.08-10.55,0-15.82.06a4.64,4.64,0,0,0-1.64.66A7.59,7.59,0,0,0,334.09,225.68Zm-.49,54.59a14.48,14.48,0,0,0,2.23.45c5,0,9.94,0,14.92,0a6.87,6.87,0,0,0,1.43-.14,2.5,2.5,0,0,0,2.15-2.27c.38-2.63-.48-4.36-3.58-4.34-4.65,0-9.3-.05-13.95,0-2.68.06-3.42.87-3.52,3.5A17.51,17.51,0,0,0,333.6,280.27ZM333.71,398a14.83,14.83,0,0,0-.43,2.68c.05,2.38.85,3.24,3.12,3.41,1.27.09,2.56.05,3.85.05,3.69,0,7.38.05,11.07-.07,2.21-.06,3.13-1.2,3.1-3.4s-.93-3.21-3.27-3.25c-5.29-.07-10.59,0-15.88,0A6.17,6.17,0,0,0,333.71,398Zm43.43-22.18c1.44.14,2.68.35,3.92.35q6.22,0,12.46-.14a2.47,2.47,0,0,0,1.62-.87,3.93,3.93,0,0,0,.41-4.08,2.59,2.59,0,0,0-2.7-1.61q-7.43.08-14.84.22c-.26,0-.52.32-.89.55C376.35,371.86,376.52,373.56,377.14,375.85Zm-36,14.76c1.76,0,3.53.08,5.29,0,2.25-.13,3.07-1.08,3.14-3.39a9.44,9.44,0,0,0-.13-1.91,2.33,2.33,0,0,0-2.25-2.14c-3.84-.09-7.69-.11-11.53,0-1.43,0-2.21,1.07-2.39,2.57a9.86,9.86,0,0,0,0,1.44c.07,2.35.85,3.28,3.1,3.43C338,390.69,339.56,390.6,341.17,390.61ZM448.55,238.68c4.57.93,12.93.84,16.3-.15a5.11,5.11,0,0,0,.41-1.29c.21-3.83-.44-4.6-4.16-4.69-2.88-.07-5.75-.06-8.63,0-4,.08-4.59.81-4.34,5A5.09,5.09,0,0,0,448.55,238.68ZM464.9,356.39c-5.42-.72-12.76-.61-16.43.22a11.43,11.43,0,0,0-.42,2.14c0,2.93.72,3.83,3.54,3.91,3.51.09,7,.09,10.54,0,2.31-.07,3.11-1,3.18-3.3A18.53,18.53,0,0,0,464.9,356.39ZM334,266.9c4.41.63,8.7.34,13,.21a3,3,0,0,0,2-1.06,3.4,3.4,0,0,0-2.6-5.51c-3.35-.14-6.7-.09-10.05,0a14.06,14.06,0,0,0-2.73.62C333.23,263.06,332.91,264.76,334,266.9Zm124.14-54.7c1.44,0,2.89.09,4.33,0,2-.16,2.77-1.11,2.87-3.15a10.25,10.25,0,0,0-.07-1.92,2.33,2.33,0,0,0-2.08-2.31q-5-.18-10.08,0a2.33,2.33,0,0,0-2.09,2.3,10.25,10.25,0,0,0-.07,1.92c.1,2,.91,3,2.86,3.16C455.23,212.29,456.68,212.2,458.13,212.2ZM414.6,293.67c-.56,5.4-.48,17.86.1,21.65a4.28,4.28,0,0,0,4-.07,151.09,151.09,0,0,0,.25-20.62c0-.28-.31-.53-.58-1Zm8.45,55.41v.08h2.88a7.72,7.72,0,0,0,1-.05,2.74,2.74,0,0,0,2.74-2.79,11.92,11.92,0,0,0-.07-2.39,2.3,2.3,0,0,0-2.15-2.23,63.5,63.5,0,0,0-7.68-.06,3.67,3.67,0,0,0-3.42,3.92,3.8,3.8,0,0,0,3.38,3.5A26.87,26.87,0,0,0,423.05,349.08Zm42.12-14.76a38.8,38.8,0,0,0,0-4.26,2,2,0,0,0-1.93-1.87c-3.36-.1-6.73-.14-10.08,0-1.48.05-2.2,1.36-2.19,3.22s.75,3.07,2.27,3.17A50,50,0,0,0,465.17,334.32Zm-36.29-53.66c1.37-5.49.7-6.55-3.83-6.65-1.76,0-3.52-.05-5.27,0a11.68,11.68,0,0,0-2.21.54c-.22.8-.39,1.41-.55,2-.12.46-.27.92-.35,1.39-.23,1.53.43,2.58,2,2.63C422,280.74,425.33,280.66,428.88,280.66Zm.35-61a22.74,22.74,0,0,0-11.53.1c-.6,2.83-.6,2.83.21,5.42a22.36,22.36,0,0,0,11.28-.21A7.29,7.29,0,0,0,429.23,219.67Zm-11.49,184c2.53.82,5.08.45,7.58.44,3.77,0,4.43-.78,4.29-4.54a7.88,7.88,0,0,0-.59-1.86c-3.88-.41-7.6-.76-11.34.18A7.18,7.18,0,0,0,417.74,403.7ZM343.32,238.89a17.65,17.65,0,0,0,.46-1.8,6.22,6.22,0,0,0,0-1.43c-.18-2.08-.92-2.94-2.92-3a40,40,0,0,0-5.25.08,2.31,2.31,0,0,0-2.24,2.12c-.18,1.4-.52,2.87.89,4.2A26.2,26.2,0,0,0,343.32,238.89ZM334,356c-1.22,5.83-.57,6.67,4.48,6.69h1c3.83-.1,4.48-.75,4.38-4.5a8.57,8.57,0,0,0-.56-1.9c-1-.13-2-.33-2.89-.35C338.28,355.92,336.23,356,334,356Z"/><path class="cls-12" d="M399.16,435H379.92a16.9,16.9,0,0,1-3.34-.2,5,5,0,0,1-.57-9.63,11.1,11.1,0,0,1,3.3-.45q19.71,0,39.43,0a13.73,13.73,0,0,1,2.87.22,5,5,0,0,1-.34,10,25.05,25.05,0,0,1-3.36.09Z"/><path class="cls-8" d="M399.29,190.11H379.61a26.66,26.66,0,0,1-3.35-.13,2.56,2.56,0,0,1-2.4-2.54,2.65,2.65,0,0,1,2.43-3,19.57,19.57,0,0,1,2.87-.13h39.36a10,10,0,0,1,2.39.07,8.16,8.16,0,0,1,2.57,1.1,2.55,2.55,0,0,1,1.06,2.94,2.48,2.48,0,0,1-2.22,1.58c-1.11.1-2.23.11-3.35.11Z"/><path class="cls-8" d="M342.06,436c-2.87,0-5.74,0-8.61,0a2.69,2.69,0,0,1-2.72-1.6,3.68,3.68,0,0,1,.41-4.05,4,4,0,0,1,2.55-1c3.66-.11,7.33-.07,11-.07,1.91,0,3.82,0,5.73,0a2.72,2.72,0,0,1,2.72,1.6,3.68,3.68,0,0,1-.41,4.05,4,4,0,0,1-2.55,1c-2.7.13-5.41.05-8.12.05Z"/><path class="cls-8" d="M445.7,435.51a7.16,7.16,0,0,1,0-5.72c2.34-1,4.76-.46,7.12-.55s4.49-.07,6.73,0,4.78-.36,7.18.48a7.22,7.22,0,0,1,0,5.73c-2.35,1-4.77.46-7.12.54s-4.49.07-6.74,0S448.11,436.36,445.7,435.51Z"/><path class="cls-18" d="M195.87,298.34c1.71-.09,3.13-.22,4.55-.22q24.53,0,49.05,0a24.48,24.48,0,0,1,3.83.24,2,2,0,0,1,1.53,2.15,2,2,0,0,1-1.6,2.1,15.18,15.18,0,0,1-2.86.21q-25.49,0-51,0c-.32,0-.64,0-1,0C195.45,302.67,195.21,302.31,195.87,298.34Z"/><path class="cls-18" d="M180.45,303.19l-3.18-.08-20.66-.29c-1.44,0-2.89,0-4.32-.13a2.27,2.27,0,0,1-2-2.74,1.65,1.65,0,0,1,1.42-1.67,17.24,17.24,0,0,1,2.39-.17h33.67a15.41,15.41,0,0,1,1.92.08,2.31,2.31,0,0,1-.11,4.55c-1.28.1-2.56,0-3.84.09C184,302.92,182.2,303.07,180.45,303.19Z"/><path class="cls-18" d="M183.41,294.34c-5.6,0-11.21,0-16.82,0a18.65,18.65,0,0,1-3.33-.29,2,2,0,0,1-1.34-2.27,1.71,1.71,0,0,1,1.66-1.45,27.43,27.43,0,0,1,2.87-.1H200.1c1.12,0,2.24.05,3.35.16A1.63,1.63,0,0,1,205,292a1.78,1.78,0,0,1-1.37,2.17,26.61,26.61,0,0,1-3.34.19C194.63,294.35,189,294.34,183.41,294.34Z"/><path class="cls-22" d="M173.74,278c-5,0-9.94,0-14.91,0a6.49,6.49,0,0,1-2.81-.38,2.62,2.62,0,0,1-.86-2,1.91,1.91,0,0,1,1-1.45,6.09,6.09,0,0,1,2.35-.31q15.39,0,30.79,0a11,11,0,0,1,1.9.18,1.82,1.82,0,0,1,1.34,2.21,1.57,1.57,0,0,1-1.46,1.6c-1.11.1-2.24.15-3.36.16Z"/><path class="cls-23" d="M209.05,290.55c1.37-.14,2.3-.32,3.23-.32q8.9,0,17.78,0a17.29,17.29,0,0,1,2.38.15,1.75,1.75,0,0,1,1.51,2.07,1.68,1.68,0,0,1-1.29,1.76,6.14,6.14,0,0,1-1.42.18q-9.84,0-19.69,0c-1,0-2.07,0-2.45-1.05A9.72,9.72,0,0,1,209.05,290.55Z"/><path class="cls-18" d="M249.38,290.22c2.73,0,5.45,0,8.18,0a5.18,5.18,0,0,1,2.3.46,2.08,2.08,0,0,1,.76,1.59,2.23,2.23,0,0,1-.77,1.6,3.2,3.2,0,0,1-1.81.42c-5.93,0-11.87,0-17.8,0a3.71,3.71,0,0,1-1.41-.25,1.7,1.7,0,0,1-.94-2,2.3,2.3,0,0,1,1-1.49,5.86,5.86,0,0,1,2.34-.33c2.73,0,5.45,0,8.18,0Z"/><path class="cls-8" d="M167.57,286.09v-3.6c1.41-1,7.28-1.15,15.89-.57,1.23,1.18,1.2,2.46.09,4.12A106.13,106.13,0,0,1,167.57,286.09Z"/><path class="cls-18" d="M159.78,281.7c1,.06,1.79.05,2.56.17a2.18,2.18,0,0,1,1.78,2.4,1.94,1.94,0,0,1-1.67,2,30.66,30.66,0,0,1-5.16,0c-1.13-.09-1.44-1.09-1.45-2.1s.22-1.94,1.34-2.18A20.56,20.56,0,0,1,159.78,281.7Z"/><path class="cls-18" d="M144.05,277.83c-.74-1.73-1-2.92,0-3.7a4.72,4.72,0,0,1,2.62-.81,12.71,12.71,0,0,1,3.27.5,2,2,0,0,1,1.75,2.38,1.81,1.81,0,0,1-2,1.67C147.9,277.91,146,277.85,144.05,277.83Z"/><path class="cls-18" d="M150,310.63c-.79,0-1.6.05-2.39,0a1.88,1.88,0,0,1-1.9-1.79,2.15,2.15,0,0,1,1.38-2.3,7.28,7.28,0,0,1,5.61,0,2.07,2.07,0,0,1,1.13,2.41,1.66,1.66,0,0,1-1.44,1.66c-.78.12-1.59.14-2.38.2Z"/><path class="cls-8" d="M158.21,306.44c2.64.58,5.44-.42,8,.68a2.84,2.84,0,0,1-.64,3.59l-7.34-.08C157.24,309,157.27,307.7,158.21,306.44Z"/><path class="cls-18" d="M170.8,386.92h15.87a31.17,31.17,0,0,1,3.35.15c1.15.15,1.53,1,1.56,2.07s-.24,2-1.36,2.22a13.68,13.68,0,0,1-2.86.21H154.18c-.48,0-1,0-1.44,0-1.8-.12-2.46-.71-2.51-2.2s.62-2.29,2.3-2.39c1.12-.07,2.25,0,3.37,0Z"/><path class="cls-22" d="M183.78,383.07H166.92c-1.13,0-2.25,0-3.37-.1a1.63,1.63,0,0,1-1.62-1.48,2,2,0,0,1,1.47-2.19,27.18,27.18,0,0,1,3.83-.26q13,0,26,0c2.41,0,4.82,0,7.23,0a25.24,25.24,0,0,1,2.88.14,1.74,1.74,0,0,1,1.56,2c-.08.87-.46,1.57-1.4,1.67a31.19,31.19,0,0,1-3.35.18C194.7,383.08,189.24,383.07,183.78,383.07Z"/><path class="cls-22" d="M227.93,383.07c-4.81,0-9.63,0-14.44,0a20.61,20.61,0,0,1-3.34-.24A1.56,1.56,0,0,1,209,381a1.61,1.61,0,0,1,1.29-1.76,11.9,11.9,0,0,1,2.38-.21q14.92,0,29.85,0a15.92,15.92,0,0,1,2.39.17,1.8,1.8,0,0,1,1.44,2.13,1.66,1.66,0,0,1-1.53,1.58c-1.11.11-2.24.14-3.36.14C236.92,383.08,232.43,383.07,227.93,383.07Z"/><path class="cls-8" d="M222.32,387v4.23c-3.11.5-6,.21-8.82.26-3,.05-6.08,0-9.12,0-2.86,0-5.72.11-8.88-.16-.09-1.45-.17-2.64-.23-3.64.56-.37.82-.68,1.07-.68C204.82,387,213.3,387,222.32,387Z"/><path class="cls-20" d="M192.44,366.63c-3.82,0-7.65,0-11.48,0a1.73,1.73,0,0,1-1.8-1.82,1.64,1.64,0,0,1,1.14-1.86,9.82,9.82,0,0,1,2.36-.26q9.34,0,18.67,0c.32,0,.64,0,1,0,1.89.13,2.61.74,2.51,2.13-.08,1.2-.73,1.74-2.31,1.84-1,.07-1.91.05-2.87.05h-7.18Z"/><path class="cls-8" d="M150.85,366.5c.5-3.43.72-3.74,3.54-3.78,4.91-.07,9.82,0,14.73,0,1.89,0,3.79-.08,5.69-.13,1.19,1,1,2.2.53,3.67-2.47,1.12-5.19.4-7.82.52-2.86.13-5.73.06-8.59,0C156.24,366.72,153.55,366.59,150.85,366.5Z"/><path class="cls-8" d="M269.49,383c-6.65.17-12.84.11-18.76.07-1.27-1.48-1.18-2.64-.42-3.82,3.88-.84,15.21-.83,19.18.07Z"/><path class="cls-24" d="M206.52,375.19c-2.07,0-4.15.06-6.22,0-1.3-.05-1.93-.87-2-2.2s.57-2.35,1.79-2.37c4.3-.07,8.6-.09,12.9,0a2.2,2.2,0,0,1,2.35,2.43c-.09,1.31-.94,2.11-2.64,2.18-2.06.09-4.14,0-6.21,0Z"/><path class="cls-18" d="M201.09,395.36c2.23,0,4.47,0,6.7,0a1.78,1.78,0,0,1,1.8,1.84,1.86,1.86,0,0,1-1.89,2.24c-4.47.06-8.93.05-13.4,0a1.74,1.74,0,0,1-1.79-1.84,1.86,1.86,0,0,1,1.87-2.24C196.62,395.3,198.85,395.36,201.09,395.36Z"/><path class="cls-18" d="M194.16,375.12c-2,0-3.92.07-5.78,0-1.17-.06-1.73-1-1.67-2.41,0-1.05.45-1.89,1.56-2a25,25,0,0,1,3.77-.12C194.84,370.66,195.22,371.36,194.16,375.12Z"/><path class="cls-8" d="M180.92,399.37v-3.48c2.36-1.42,4.81-.85,7.17-.54a3,3,0,0,1,.16,3.81,8.48,8.48,0,0,1-1.69.3C184.85,399.48,183.13,399.41,180.92,399.37Z"/><path class="cls-23" d="M34.39,367.59l0-2.09,1.34.78C35.41,366.87,35.37,367.7,34.39,367.59Z"/><path class="cls-13" d="M553.37,549.93c2.37-.34,4.75-.65,7.12-1a22.6,22.6,0,0,0,3.72-.88c2.37-.84,3-2,2.65-4.36-.2-1.26-.57-2.49-.86-3.73A56,56,0,0,1,578,534a27.34,27.34,0,0,1,12.22-1.52c6.87.8,10.42,4.42,11.3,11.38,0,5.95-2.5,11.1-5,16.26a87.39,87.39,0,0,1-11.18,16.63c-2.49,3-4.65,6.5-8.08,8.72l-16.5-.26c1.14-3.6,3.23-6.94,3.18-11.42-1.43.81-2.5,1.38-3.52,2-5.08,3.18-10.46,5.66-16.47,6.31-7.5.8-14.23-1.47-20.38-5.66a7.19,7.19,0,0,1-1.36-1.34c-1.18-1.39-.9-2.88.77-3.42a15.23,15.23,0,0,1,3.74-.68,44.21,44.21,0,0,1,12.85,1.46c2.5.59,5,1.27,7.43,2,5.63,1.66,10.39.4,14.39-4a43.46,43.46,0,0,0,6.68-8.77,13.22,13.22,0,0,0,2-6.76c-1.32-1-2.52-.28-3.68.07a108,108,0,0,1-16.85,3.87,16.53,16.53,0,0,1-7.14-.4,8.93,8.93,0,0,1-2.53-1.3,2,2,0,0,1-.17-3c1.68-1.94,4.06-2.45,6.33-3.16.81,1.39,1.64,2.77,2.65,4.45Z"/><path class="cls-15" d="M577.18,585.46c3.43-2.22,5.59-5.67,8.08-8.72a87.39,87.39,0,0,0,11.18-16.63c2.54-5.16,5.08-10.31,5-16.26a21.57,21.57,0,0,0,3.22-.63c5.16-1.81,10.52-2.22,15.91-2.5,4.31.54,8.57,1.19,12.57,3,6.6,3.07,11.26,7.85,13.47,14.87.28.92.58,1.84.91,2.74s1.23.89,2,1.08c-1.89.74-3.82,1.41-5.68,2.24-3.82,1.69-7,4.33-10.27,6.88-4,3.1-6.71,7.18-9.54,11.19-.49.7-.4,1.81-.57,2.73q-21.72.06-43.45.12C579.08,585.63,578.13,585.52,577.18,585.46Z"/><path class="cls-9" d="M717.41,508.28c-.23,5.26-.38,10.52-.72,15.77-.4,6.37-1,12.74-1.48,19.12-.23,2.86-.52,5.72-.83,8.58a123.6,123.6,0,0,0-.06,21.77c2.17,1.08,2.73,3.21,3,5.47v6a14.76,14.76,0,0,1-2.59.45q-10,0-20.06-.06a13.84,13.84,0,0,1-3.74-.52c-1.66-.48-2-1.74-1-3.35a16.65,16.65,0,0,1,1.17-1.49c5.76-1.22,11.46-2.7,17.22-4.42-1.82-8.67-3.54-17-5.29-25.25q-4.3-20.43-8.63-40.85c-.13-.62-.17-1.26-.25-1.89C701.92,508.83,709.67,508.2,717.41,508.28Z"/><path class="cls-7" d="M623.48,585.5c.17-.92.08-2,.57-2.73,2.83-4,5.56-8.09,9.54-11.19,3.28-2.55,6.45-5.19,10.27-6.88,1.86-.83,3.79-1.5,5.68-2.24a28.76,28.76,0,0,1,13.65-1.15,19.35,19.35,0,0,1,13.33,8.38c1.92,2.7,2.23,5.9,2.77,9-.6,2.13-1.21,4.25-1.78,6.24C672.78,585.66,641.53,585.94,623.48,585.5Z"/><path class="cls-1" d="M200.24,585.3c-1.82-7.56-.74-15.25-1-22.89a3.13,3.13,0,0,1,2-3,18.4,18.4,0,0,1,1.42,1.9,126.68,126.68,0,0,0,14.23,19.78c1.35,1.56,3,2.86,4.48,4.28Z"/><path class="cls-9" d="M706.38,408.36a1.87,1.87,0,0,1-2.82-.16Z"/><path class="cls-16" d="M606.37,475.18c-2.82,1.95-3.92,5-4.92,8-1.16,3.48-2,7.06-3,10.59-.73,2.61-1.4,5.25-2.29,7.81-.68,1.93-1.35,4-3.23,5.18l-1.15-2.17c2.35-2.39,2.87-5.58,3.74-8.6,1.33-4.57,2.47-9.19,3.85-13.74a24.75,24.75,0,0,1,2.35-5.19c1-1.63,2-3.26,4.18-3.59Z"/><path class="cls-16" d="M547.83,460.57c-2.48,1.83-3.37,4.61-4.21,7.35s-1.36,5.58-2.15,8.34a79.13,79.13,0,0,1-2.53,7.72c-.89,2.24-2.1,4.34-4.64,5.16-.19-.89-.38-1.77-.56-2.66,1.66-.27,2.39-1.58,2.89-2.9,1.06-2.83,2-5.7,2.87-8.59s1.4-5.89,2.29-8.77a25.26,25.26,0,0,1,2.19-4.76,4.3,4.3,0,0,1,3.3-2.49C547.46,459.51,547.64,460,547.83,460.57Z"/><path class="cls-16" d="M625.25,500.63c-2.75-1.16-4-3.58-5-6.12s-1.72-5.46-2.57-8.19c-.66-2.12-1.24-4.28-2-6.36s-1.67-3.8-3.65-4.84c.19-.63.38-1.27.58-1.9a6.36,6.36,0,0,1,4.34,4.06c1,2.32,1.83,4.7,2.6,7.11.86,2.71,1.4,5.52,2.37,8.19.8,2.19,1.53,4.56,4,5.61C625.72,499,625.48,499.81,625.25,500.63Z"/><path class="cls-16" d="M566.57,484.42c-2.63-1.65-3.57-4.44-4.61-7.11s-1.85-5.45-2.83-8.15a38.21,38.21,0,0,0-1.86-4.42,9,9,0,0,0-3.75-4.24c.16-.54.33-1.09.49-1.64,2.5.37,3.77,2.26,4.81,4.19a61.91,61.91,0,0,1,3,6.93c.91,2.36,1.65,4.78,2.47,7.17a11,11,0,0,0,3.18,5.16Z"/><path class="cls-16" d="M645.3,476c-2.35,1.14-3.39,3.33-4.21,5.58s-1.45,4.88-2.21,7.32c-.66,2.13-1.28,4.28-2.12,6.34-.91,2.23-2.17,4.28-4.51,5.35l-.78-2.41c2-.76,2.83-2.49,3.47-4.3.79-2.25,1.4-4.55,2.11-6.82.76-2.43,1.39-4.91,2.36-7.24,1-2.5,2.34-4.92,5.39-5.54C645,474.89,645.14,475.46,645.3,476Z"/><path class="cls-16" d="M586.35,507.36c-2.24-.95-3.33-2.95-4.33-4.95-1.44-2.86-2.7-5.82-4.11-8.7-1.26-2.58-2.48-5.23-4.95-7,.17-.56.34-1.12.52-1.68,2.45.52,3.7,2.44,4.75,4.4,1.43,2.67,2.67,5.45,3.88,8.22a22.75,22.75,0,0,0,4.8,7.66C586.73,506,586.54,506.69,586.35,507.36Z"/><path class="cls-12" d="M631.47,498.21l.78,2.41a8,8,0,0,1-.93,1.59q-2.57,2.67-5.18,0a7.08,7.08,0,0,1-.89-1.6c.23-.82.47-1.63.7-2.44A4.42,4.42,0,0,1,631.47,498.21Z"/><path class="cls-12" d="M554,458.86c-.16.55-.33,1.1-.49,1.64a4.4,4.4,0,0,1-5.69.08c-.19-.54-.37-1.07-.55-1.61a8.53,8.53,0,0,1,1-2.6c1.4-1.69,3.5-1.5,4.79.33A11.29,11.29,0,0,1,554,458.86Z"/><path class="cls-12" d="M645.3,476c-.16-.57-.33-1.14-.5-1.72a5.32,5.32,0,0,1,.42-1.35c1.66-2.66,3.54-2.88,5.67-.65a5.94,5.94,0,0,1,.72,1.22c-.07.85-.14,1.7-.22,2.54C649.36,477.23,647.32,477.8,645.3,476Z"/><path class="cls-12" d="M573.48,485.06c-.18.56-.35,1.12-.52,1.68-4,1.71-4.32,1.59-6.39-2.32l.94-2.11C571.54,480.83,572.15,481.12,573.48,485.06Z"/><path class="cls-12" d="M612.63,473.22c-.2.63-.39,1.27-.58,1.9a4.77,4.77,0,0,1-5.68.06l-.45-1.7a6.61,6.61,0,0,1,.4-1.83c1.45-2.5,4-2.58,5.64-.19A8.22,8.22,0,0,1,612.63,473.22Z"/><path class="cls-12" d="M533.74,486.48c.18.89.37,1.77.56,2.66-.49,1.62-1.3,2.85-3.22,2.86s-2.77-1.2-3.34-2.78l.36-2.08C529.82,485.54,531.74,485.63,533.74,486.48Z"/><path class="cls-12" d="M586.35,507.36c.19-.67.38-1.35.56-2a5.37,5.37,0,0,1,4.89-.74l1.15,2.17c-.26,1.23-.29,2.66-1.65,3.2a5.19,5.19,0,0,1-2.73.22C587.15,509.9,586.75,508.58,586.35,507.36Z"/><path class="cls-20" d="M270,522.59a16.45,16.45,0,0,1-.32,2.08,3.29,3.29,0,0,1-4.47,2.32,7.29,7.29,0,0,1-2.12-1.07,14.42,14.42,0,0,1-5.23-8.36c-.59-2.82.75-5,3.47-6a4.88,4.88,0,0,1,6.23,2.12A17,17,0,0,1,270,522.59Z"/><path class="cls-20" d="M308.24,538.92h.48c2.71.15,4.83,2.23,5.76,5.64.82,3,0,6-2,7.45a5.94,5.94,0,0,1-7.45-1,9.15,9.15,0,0,1-1.1-9.5A4.64,4.64,0,0,1,308.24,538.92Z"/><path class="cls-21" d="M319.87,526.19c0,.32,0,.64,0,.95-.09,2.24-.81,4.14-3.1,4.89s-4-.45-5.48-2A9.15,9.15,0,0,1,311,518.9a2.62,2.62,0,0,1,3-.92C317.69,518.93,319.85,521.93,319.87,526.19Z"/><path class="cls-21" d="M248,540.48a40.75,40.75,0,0,1-5-1.86,2.43,2.43,0,0,1-.65-3.75,10.82,10.82,0,0,1,.93-1.1c3.51-3.66,7.37-3.48,10.5.48a2.89,2.89,0,0,1-.78,4.53A34.51,34.51,0,0,1,248,540.48Z"/><path class="cls-21" d="M275.69,560.43a16.56,16.56,0,0,1-2.55-.92c-1.44-.73-2.73-1.73-2.85-3.53-.07-1.08,1.49-2.16,3.76-2.3a34.66,34.66,0,0,1,6.6.23,2.11,2.11,0,0,1,1.2,3.38A7.25,7.25,0,0,1,275.69,560.43Z"/><path class="cls-16" d="M251.92,551c-.8,1.32-.39,3.22-2.26,4.36l-4.56-5.4A13.87,13.87,0,0,1,251.92,551Z"/><path class="cls-16" d="M253.49,551.41l.13.06Z"/><path class="cls-21" d="M511.79,508.23c.07,4,.16,7.93.21,11.89,0,2.61,1,4.64,3.52,5.66a17,17,0,0,1-9.15,8.05c-4.43,1.84-6.91-.21-6.19-4.94a11.05,11.05,0,0,1,.48-1.86A47.89,47.89,0,0,1,511.79,508.23Z"/><path class="cls-21" d="M528.22,522.4c.39-3,.84-5.83,2.36-8.37,2-3.35,5.65-3.86,8.55-1.27a4.21,4.21,0,0,1,1.58,3.85,13.07,13.07,0,0,1-6.62,10.06c-2.58,1.46-4.78.39-5.53-2.45C528.4,523.6,528.32,523,528.22,522.4Z"/><path class="cls-20" d="M489.62,552.92c-3.18,0-5.06-1.38-5.66-3.78a8.74,8.74,0,0,1,2.08-8.5,5.15,5.15,0,0,1,8.85,2,8.71,8.71,0,0,1-.78,7.42A5.25,5.25,0,0,1,489.62,552.92Z"/><path class="cls-21" d="M489.24,523.57c-.35,3.79-1.2,6.77-4.63,8.24a4.12,4.12,0,0,1-5.56-2.13,8.79,8.79,0,0,1,4.74-11.52c1.95-.73,3.42-.21,4.3,1.76A30,30,0,0,1,489.24,523.57Z"/><path class="cls-21" d="M550.34,540.35a10,10,0,0,1-5.09-1.59,2.83,2.83,0,0,1-.63-4.54,16.44,16.44,0,0,1,3.43-2.59,4,4,0,0,1,5.29.56c.8.79,1.68,1.5,2.41,2.35a2.69,2.69,0,0,1-.87,4.41A31.43,31.43,0,0,1,550.34,540.35Z"/><path class="cls-20" d="M522.29,553.41a32.39,32.39,0,0,1,4.18.87c1.91.62,2.16,2.24.72,3.73-3.37,3.51-8,3.15-10.68-.83a2.11,2.11,0,0,1,1-3.19,3.44,3.44,0,0,1,.91-.29C519.52,553.59,520.64,553.53,522.29,553.41Z"/><path class="cls-6" d="M553.37,549.93l-4.8,5.6c-1-1.68-1.84-3.06-2.65-4.45C548.36,550.36,550.77,549.51,553.37,549.93Z"/><path class="cls-6" d="M278.4,253a3.19,3.19,0,0,1,2.8,3.27,3,3,0,0,1-3.35,2.6,2.77,2.77,0,0,1-2.53-2.91A3.11,3.11,0,0,1,278.4,253Z"/><path class="cls-25" d="M255.85,258.71a2.64,2.64,0,0,1-2.64-2.8,2.93,2.93,0,0,1,2.71-2.81,3.07,3.07,0,0,1,2.93,3.15A2.8,2.8,0,0,1,255.85,258.71Z"/><path class="cls-26" d="M234.05,258.67a2.75,2.75,0,0,1-3.07-2.8,3,3,0,0,1,2.61-2.85,3.24,3.24,0,0,1,3.12,2.94A2.64,2.64,0,0,1,234.05,258.67Z"/><path class="cls-6" d="M659.22,253a3.14,3.14,0,0,1,2.87,3.19,3,3,0,0,1-5.89-.14A3.1,3.1,0,0,1,659.22,253Z"/><path class="cls-25" d="M636.9,253.1a3,3,0,0,1,2.83,3.23,2.81,2.81,0,0,1-3.07,2.38,2.65,2.65,0,0,1-2.55-2.88A2.9,2.9,0,0,1,636.9,253.1Z"/><path class="cls-26" d="M614.94,258.67a2.76,2.76,0,0,1-3.07-2.8,3,3,0,0,1,2.62-2.85,3.26,3.26,0,0,1,3.12,2.94A2.65,2.65,0,0,1,614.94,258.67Z"/><path class="cls-14" d="M449.67,474.92a3.59,3.59,0,0,1-3,3.24,3.18,3.18,0,1,1-.15-6.36A3.66,3.66,0,0,1,449.67,474.92Z"/><path class="cls-21" d="M468.47,477.86a3,3,0,0,1-2.71-3.23,3.3,3.3,0,0,1,2.91-2.65,3.22,3.22,0,0,1,3,3.08A3,3,0,0,1,468.47,477.86Z"/><path class="cls-14" d="M424.22,472a2.74,2.74,0,0,1,2.62,2.8,2.79,2.79,0,0,1-2.8,3.12,3.14,3.14,0,0,1-2.79-2.77A3.32,3.32,0,0,1,424.22,472Z"/><path class="cls-6" d="M662.1,433.08a2.81,2.81,0,0,1-2.92,3.06,2.77,2.77,0,0,1-2.95-2.53,2.94,2.94,0,0,1,2.65-3.36A3,3,0,0,1,662.1,433.08Z"/><path class="cls-26" d="M614.52,436.06a2.83,2.83,0,0,1-2.67-3.26,2.79,2.79,0,0,1,2.9-2.56,2.82,2.82,0,0,1,2.93,3A2.86,2.86,0,0,1,614.52,436.06Z"/><path class="cls-25" d="M636.75,436a2.73,2.73,0,0,1-2.65-2.74,2.83,2.83,0,0,1,3-2.92,2.93,2.93,0,0,1,2.69,2.77A2.84,2.84,0,0,1,636.75,436Z"/><path class="cls-25" d="M258.85,345a2.9,2.9,0,0,1-3.27,2.61,2.75,2.75,0,0,1-2.38-3A2.84,2.84,0,0,1,256,342,3,3,0,0,1,258.85,345Z"/><path class="cls-27" d="M281.16,345a2.93,2.93,0,0,1-5.84-.23,2.93,2.93,0,1,1,5.84.23Z"/><path class="cls-26" d="M236.75,344.87a3.31,3.31,0,0,1-3.12,3,3,3,0,0,1-2.7-3.32,3,3,0,0,1,2.76-2.79A3.32,3.32,0,0,1,236.75,344.87Z"/><path class="cls-8" d="M142.41,438.47l2-1.52,3.13,1.77,6.15-5.75,2.32,1.87-8.37,8.47C145.31,442.32,144,440.57,142.41,438.47Z"/><path class="cls-12" d="M147.38,480.25a21.47,21.47,0,0,1-4.83-4.59l1.77-2,3.21,1.82,5.84-5.5c.43.08.82,0,1,.2a17.25,17.25,0,0,1,1.41,1.47c-.85.95-1.53,1.79-2.29,2.56C151.53,476.22,149.57,478.27,147.38,480.25Z"/><path class="cls-16" d="M410.5,232.76c1.28,2.14.84,3.86.61,5.79a18.22,18.22,0,0,1-2.72.71,31.36,31.36,0,0,1-3.36,0H355.47a38.89,38.89,0,0,1-4.32-.13c-1.59-.18-2.35-1.26-2.4-3.07-.06-2.05.75-3.21,2.53-3.44a21.28,21.28,0,0,1,2.88-.11H406.6C407.87,232.54,409.13,232.68,410.5,232.76Z"/><path class="cls-16" d="M411,356.77a7,7,0,0,1-.15,5.2c-1.61,1.14-3.43.71-5.14.71-11.71,0-23.42,0-35.13,0H355.18c-1,0-1.93,0-2.89,0-3.12,0-3.87-2-3.44-4.45a2.45,2.45,0,0,1,2.25-2.16,28.69,28.69,0,0,1,3.35-.15q26,0,52,0C408,356,409.64,355.59,411,356.77Z"/><path class="cls-1" d="M363.86,293.67a14.83,14.83,0,0,1,6.05.11c.81,2.86,1.7,17.89,1.3,21.56a4.39,4.39,0,0,1-4.29,0c-1-4.12-.41-8.48-.94-12.72-1.21.05-1.33.95-1.57,1.66-1.14,3.51-2.24,7-3.44,10.81l-3.76.35c-2-4.21-2.35-8.76-4.46-13.65-.8,5.16-.48,9.5-1.36,13.77a15.25,15.25,0,0,1-2.05.28,9.36,9.36,0,0,1-1.61-.23c-1-.95-.06-16.92,1.1-21.73,1.94-.75,4-.5,6.1-.18,1.94,3.89,2.31,8.26,4.18,12.64,1.43-1.45,1.44-2.95,1.91-4.21s.84-2.76,1.29-4.14S363.27,295.3,363.86,293.67Z"/><path class="cls-16" d="M385.33,349.17H366.05c-1,0-1.92,0-2.89,0-3.08-.15-4-1.14-3.84-4.19.09-2.32.9-3.23,3.15-3.41,1-.08,1.93-.05,2.89-.05h40c.64,0,1.28,0,1.92,0,3.58.16,5.07,2.41,3.83,5.85a2.45,2.45,0,0,1-2.17,1.66c-1.12.11-2.25.14-3.37.14Z"/><path class="cls-16" d="M379.54,390.64H361.23c-1,0-1.93,0-2.89,0-3.08-.16-4-1.13-3.84-4.2.09-2.32.89-3.21,3.15-3.4,1-.08,1.93,0,2.89,0h38.07c.65,0,1.29,0,1.93,0,3.57.16,5.07,2.43,3.82,5.86a2.46,2.46,0,0,1-2.18,1.65c-1.12.11-2.24.13-3.36.14Z"/><path class="cls-16" d="M411,280.31a16,16,0,0,1-2.32.42q-23.32,0-46.64,0a13.45,13.45,0,0,1-2.15-.38,16.84,16.84,0,0,1-.5-3.17c.06-2.08.91-2.93,2.87-3.12.95-.09,1.92-.06,2.88-.06h40.4c1,0,1.93,0,2.88.06,2,.19,2.8,1,2.9,3.11A21.36,21.36,0,0,1,411,280.31Z"/><path class="cls-16" d="M410.79,219.34a9.91,9.91,0,0,1,.5,1.85c.14,3.78-.52,4.55-4.35,4.57-14.45,0-28.91,0-43.36,0-.32,0-.65,0-1,0-2.81-.24-4.15-2.49-2.9-5.12a3.11,3.11,0,0,1,1.78-1.41,10.14,10.14,0,0,1,2.87-.21q21.43,0,42.88,0C408.33,219,409.43,219.21,410.79,219.34Z"/><path class="cls-16" d="M410.92,397.69a23.63,23.63,0,0,1,.37,3.58,2.59,2.59,0,0,1-2.68,2.81c-1.11.11-2.24.08-3.37.08h-40c-.81,0-1.61,0-2.41,0-2.87-.18-4-1.66-3.4-4.47a2.52,2.52,0,0,1,2.28-2.14,17.47,17.47,0,0,1,2.4-.13q21.67,0,43.36,0C408.44,397.41,409.39,397.56,410.92,397.69Z"/><path class="cls-16" d="M423,212.25H406.66a29,29,0,0,1-3.36-.12,2.58,2.58,0,0,1-2.46-2.51,12,12,0,0,1,0-2.4,2.63,2.63,0,0,1,2.48-2.5,23,23,0,0,1,2.88-.11h34.18c.49,0,1,0,1.45,0,3.94-.17,4.53,1.86,4.08,5.28a2.4,2.4,0,0,1-2.19,2.21,23.49,23.49,0,0,1-3.36.16C434.59,212.26,428.81,212.25,423,212.25Z"/><path class="cls-16" d="M404,260.85c1,2.06.67,3.87.32,5.9a20.3,20.3,0,0,1-3,.46q-21.16,0-42.33,0c-.32,0-.65,0-1,0-2.72-.19-3.73-1.39-3.44-4a2.6,2.6,0,0,1,2.38-2.58,15.89,15.89,0,0,1,2.39-.13q20.69,0,41.37,0C401.78,260.5,402.86,260.73,404,260.85Z"/><path class="cls-16" d="M423.37,334.76H407c-1,0-1.92,0-2.88,0-2.78-.19-3.89-1.78-3.23-4.58a2.34,2.34,0,0,1,1.88-1.94,24.46,24.46,0,0,1,3.83-.2h33.6a26.66,26.66,0,0,1,3.35.12c1.6.21,2.36,1.25,2.42,3.05.06,2.06-.74,3.24-2.49,3.46a26.66,26.66,0,0,1-3.35.12Z"/><path class="cls-16" d="M352.53,246.06h12.53a29.13,29.13,0,0,1,3.37.14,2.58,2.58,0,0,1,2.37,2.6,11.33,11.33,0,0,1,0,2.4,2.6,2.6,0,0,1-2.56,2.42,19.28,19.28,0,0,1-2.41.09H338.33c-.32,0-.65,0-1,0-4.33.24-4.52-2.77-3.84-5.84a2.29,2.29,0,0,1,2.15-1.68c1.11-.11,2.24-.13,3.36-.14Z"/><path class="cls-1" d="M394.14,304.84c0,.52,0,1.49-.18,2.43a10.27,10.27,0,0,1-9.75,9,10.16,10.16,0,0,1-10.9-7.46,13.63,13.63,0,0,1-.1-7.57c1.52-5.69,6.48-8.78,12.48-7.88C390.87,294.08,394.11,298.35,394.14,304.84Zm-4.9,0a28,28,0,0,0-1.66-5.06c-1.93-3.46-6.23-3.51-8.15,0a9.83,9.83,0,0,0,.11,10.11,4.5,4.5,0,0,0,7.92,0A27.71,27.71,0,0,0,389.24,304.82Z"/><path class="cls-1" d="M409.19,303.73c.67.7,1.15,1.12,1.53,1.61,2.89,3.75,1.77,8.07-2.53,9.78a20.14,20.14,0,0,1-11.8.28c-.66-3.38-.77-15.95-.16-21.28a18.22,18.22,0,0,1,10.72-.26c4.69,1.19,5.78,4.63,3,8.78C409.82,302.9,409.62,303.15,409.19,303.73ZM401.05,312a4.79,4.79,0,0,0,4.56-.37A2.52,2.52,0,0,0,407,308.8a4.11,4.11,0,0,0-1.6-2.16,4,4,0,0,0-4.22-.28A10.69,10.69,0,0,0,401.05,312Zm0-10.27c2.75.52,3.43.48,4.32-.06a2.36,2.36,0,0,0,0-4,4,4,0,0,0-4.28.1Z"/><path class="cls-16" d="M350.88,212.25c-4,0-8,0-12,0a23.57,23.57,0,0,1-3.36-.17,2.43,2.43,0,0,1-2.12-2.29,11.24,11.24,0,0,1-.05-2.39,2.73,2.73,0,0,1,2.79-2.73,15.56,15.56,0,0,1,1.93-.06h25a13.65,13.65,0,0,1,2.4.11,4.1,4.1,0,0,1,3.06,5.88,3,3,0,0,1-1.78,1.43,13.23,13.23,0,0,1-3.34.22C359.23,212.26,355.06,212.25,350.88,212.25Z"/><path class="cls-16" d="M333.5,370.07c4.61-.82,32.62-.81,36.73-.05.95,1.69.78,3.52.16,5.59a9.27,9.27,0,0,1-2.22.56q-16.12.06-32.25,0a11.36,11.36,0,0,1-1.93-.36C332.85,374,333.28,372.13,333.5,370.07Z"/><path class="cls-1" d="M450.65,293.74v3.47c-2.46,1.28-5.15.08-7.58.91-.66,1.64-.66,1.64-.33,3.64,2.19.95,4.68,0,7,.73,1.09,1,.95,2.22.15,3.82l-6.8.42c-1.29,1.31-.69,2.75-.68,4.17a4.46,4.46,0,0,0,1.34.61c2.37.14,4.74.19,7.4.29.08,1.27.14,2.31.19,3.19-1.46,1.28-3,.82-4.36.89-1.6.07-3.21,0-4.81,0-1.42,0-2.84-.14-4.19-.21-.85-3.48-1-16.85-.21-21.87A50.85,50.85,0,0,1,450.65,293.74Z"/><path class="cls-16" d="M333.77,334.37c-.64-2.24-.79-3.94.11-5.87a14.31,14.31,0,0,1,2.62-.48c9.29,0,18.57,0,27.86,0,.48,0,1,0,1.44,0,2.19.21,3.1,1.25,3.07,3.45,0,2-.9,3-2.81,3.21a15.18,15.18,0,0,1-1.91.06q-13.45,0-26.9,0C336.17,334.73,335.08,334.52,333.77,334.37Z"/><path class="cls-16" d="M450,246.06c3.69,0,7.39.08,11.08,0,4.19-.1,4.56,2,4.2,5.21a2.44,2.44,0,0,1-2.13,2.29,17.15,17.15,0,0,1-2.87.17H439.53c-.64,0-1.29,0-1.93-.05-2.09-.2-2.9-1-3.06-3a9.89,9.89,0,0,1,0-1.44c.12-2,1-3,2.92-3.12s3.85-.06,5.77-.07Z"/><path class="cls-16" d="M450.29,341.52c3.69,0,7.38-.07,11.07,0,3.5.08,5,2.56,3.66,5.9a2.93,2.93,0,0,1-1.72,1.48,12.82,12.82,0,0,1-3.34.24q-9.63,0-19.26,0a15.32,15.32,0,0,1-2.88-.14,4.1,4.1,0,0,1-2.83-6,3.2,3.2,0,0,1,1.84-1.34,10.52,10.52,0,0,1,2.87-.19c3.53,0,7.06,0,10.59,0Z"/><path class="cls-16" d="M415.09,246.06c2.89,0,5.78,0,8.67,0a14.43,14.43,0,0,1,2.87.18,3.73,3.73,0,0,1,0,7.29,11.18,11.18,0,0,1-2.39.17H405.47a14.81,14.81,0,0,1-2.4-.15,2.47,2.47,0,0,1-2.18-2.23,10.26,10.26,0,0,1-.1-1.92c.09-2.27.91-3.23,3.23-3.29,3.69-.11,7.38,0,11.07,0Z"/><path class="cls-16" d="M451.78,383c3.22,0,6.43-.07,9.64,0,3.45.09,5,2.66,3.58,6a2.92,2.92,0,0,1-1.34,1.28,4.15,4.15,0,0,1-1.86.36c-6.91,0-13.81.08-20.72,0-3.3-.05-4.87-3.12-3.2-6.15a3.22,3.22,0,0,1,1.88-1.28,10.93,10.93,0,0,1,2.87-.18c3.05,0,6.1,0,9.15,0Z"/><path class="cls-16" d="M435.05,376.22a23.31,23.31,0,0,1-.51-3.37c.07-2.37.85-3.26,3.16-3.33,3.52-.12,7.05-.06,10.57-.06,4.16,0,8.33,0,12.49,0s4.92,1,4.36,5.31c0,.29-.31.54-.65,1.08-4.7.81-9.65.23-14.56.34S440.33,376.22,435.05,376.22Z"/><path class="cls-16" d="M464.85,280.38a31.35,31.35,0,0,1-3.45.37c-7.38,0-14.75,0-22.13,0-.48,0-1,0-1.44,0a3.35,3.35,0,0,1-2.88-5.13,3.17,3.17,0,0,1,1.8-1.4,10,10,0,0,1,2.86-.2c6.9,0,13.79,0,20.68,0,.64,0,1.29,0,1.93,0,2.25.21,3,1,3.1,3.42A18.5,18.5,0,0,1,464.85,280.38Z"/><path class="cls-16" d="M464.93,219.38a26.08,26.08,0,0,1,.35,3.52c-.1,1.79-.93,2.58-2.69,2.8a15.34,15.34,0,0,1-1.92.07H439c-.32,0-.64,0-1,0-2.84-.2-4-1.72-3.37-4.5a2.55,2.55,0,0,1,2.29-2.13,13.75,13.75,0,0,1,1.92-.12q11.79,0,23.57,0A20.13,20.13,0,0,1,464.93,219.38Z"/><path class="cls-16" d="M464.76,397.74a10,10,0,0,1,.52,1.81c.15,3.81-.5,4.57-4.31,4.6-7.38.05-14.75,0-22.13,0-.32,0-.64,0-1,0-2.58-.22-3.66-1.61-3.25-4.2a2.7,2.7,0,0,1,2.54-2.45,15.18,15.18,0,0,1,1.91-.09c7.54,0,15.08,0,22.61,0C462.63,397.42,463.56,397.61,464.76,397.74Z"/><path class="cls-16" d="M401.29,375.85a14,14,0,0,1-.48-2.45c0-2.95.72-3.84,3.57-3.91,4-.09,8,0,12,0,3.21,0,6.41.05,9.62,0,3.62,0,4,2.68,3.34,4.86a3.18,3.18,0,0,1-1.61,1.6,5.88,5.88,0,0,1-2.35.29q-11.07,0-22.13,0A16.61,16.61,0,0,1,401.29,375.85Z"/><path class="cls-16" d="M464.76,260.51a16.85,16.85,0,0,1,.55,2.82c0,2.92-.72,3.77-3.57,3.88-2.55.09-5.11,0-7.66,0-4,0-8,0-12,0-1.26,0-2.52-.15-3.66-.22-1.23-2.48-1.28-2.48-.64-5.68.35-.2.74-.62,1.15-.64C447.4,260.25,455.84,260.55,464.76,260.51Z"/><path class="cls-16" d="M417.45,356.3c1.61-.16,2.7-.35,3.79-.35,5.62,0,11.23,0,16.84,0a17.15,17.15,0,0,1,2.87.17c1.33.22,2,1.22,2.15,2.8.13,1.85-.52,3.15-1.83,3.52a8.59,8.59,0,0,1-1.89.25c-1.29,0-2.57,0-3.85,0h-13a23,23,0,0,1-2.88-.13,2.5,2.5,0,0,1-2.42-2.52A28.45,28.45,0,0,1,417.45,356.3Z"/><path class="cls-16" d="M417.89,238.92a4.47,4.47,0,0,1-.43-.83c-.61-4.76,0-5.5,4.53-5.54,5.45-.06,10.9,0,16.35,0,.48,0,1,0,1.44,0,2.76.22,3.9,1.89,3.18,4.64a2.46,2.46,0,0,1-1.93,1.91,9.44,9.44,0,0,1-1.91.18q-9.63,0-19.24,0A11.69,11.69,0,0,1,417.89,238.92Z"/><path class="cls-16" d="M384.78,212.22c-2.56,0-5.13.08-7.69,0s-3.31-1.1-3.32-3.7a10,10,0,0,1,.09-1.44,2.53,2.53,0,0,1,2.12-2.29,10.31,10.31,0,0,1,1.92-.17q7,0,13.94,0a8.71,8.71,0,0,1,1.91.17,2.38,2.38,0,0,1,1.94,1.9,9.48,9.48,0,0,1,.17,2.38c-.09,2-.94,3-2.9,3.11-2.72.12-5.45,0-8.18,0Z"/><path class="cls-16" d="M421.08,383c2.55,0,5.1-.09,7.64,0,1.94.1,2.76,1.1,2.88,3.11a10,10,0,0,1-.06,1.9,2.55,2.55,0,0,1-2.49,2.44c-1.74.15-3.5.12-5.25.13-3.35,0-6.69,0-10,0-1.36,0-2.69-.36-3.08-1.76-.48-1.67-.78-3.52.61-5a3.37,3.37,0,0,1,2.14-.84c2.54-.1,5.09,0,7.64,0Z"/><path class="cls-16" d="M343.84,341.54c2.41,0,4.82-.08,7.22,0s3.34,1.08,3.37,3.66c0,2.84-.79,3.84-3.6,3.91-3.69.1-7.38,0-11.07,0-1.13,0-2.25,0-3.37-.05-2.25-.18-3.05-1.09-3.14-3.41v-.48c0-2.58.85-3.56,3.37-3.67S341.43,341.54,343.84,341.54Z"/><path class="cls-1" d="M422.32,293.69h3.95a4.5,4.5,0,0,1,.57,1.37c.07,3.69.06,7.38.1,11.08,0,1.58.11,3.16.18,4.91,2.72,1.13,5.54.08,8.05.8a2.91,2.91,0,0,1-.05,3.88,72.39,72.39,0,0,1-12.57-.12C421.85,311.86,421.73,300,422.32,293.69Z"/><path class="cls-16" d="M386.05,253.72c-1.61,0-3.21,0-4.81,0a13.53,13.53,0,0,1-2.39-.14,3.74,3.74,0,0,1-.24-7.3,3.37,3.37,0,0,1,.94-.16c4.49,0,9-.08,13.45,0,1.93,0,2.76,1.12,2.87,3.14a10.25,10.25,0,0,1-.07,1.92,2.53,2.53,0,0,1-2.55,2.4c-2.4.11-4.8,0-7.2,0Z"/><path class="cls-16" d="M374.24,334.39a17.91,17.91,0,0,1-.44-3c.07-2.34.87-3.23,3.2-3.3,3.84-.11,7.69-.06,11.54-.05,1.6,0,3.21,0,4.8.11,1.77.17,2.58,1.38,2.53,3.43-.05,1.81-.82,2.83-2.4,3.09a12.1,12.1,0,0,1-1.91.12q-7.46,0-14.91,0A22.75,22.75,0,0,1,374.24,334.39Z"/><path class="cls-16" d="M411,266.87a7.42,7.42,0,0,1-.17-5.71c3.17-1.37,6.57-.56,9.86-.64s6.7-.36,9.93.27c1.15,2.57,1.19,2.57.45,5.79-3.14,1.35-6.53.54-9.83.62S414.58,267.56,411,266.87Z"/><path class="cls-16" d="M334.09,225.68a7.59,7.59,0,0,1-.44-5.9,4.64,4.64,0,0,1,1.64-.66c5.27-.07,10.55-.14,15.82-.06,2.59,0,3.64,1.54,3.27,4.15a2.54,2.54,0,0,1-2.51,2.44C346,225.89,340.09,225.82,334.09,225.68Z"/><path class="cls-16" d="M333.6,280.27a17.51,17.51,0,0,1-.32-2.73c.1-2.63.84-3.44,3.52-3.5,4.65-.09,9.3,0,13.95,0,3.1,0,4,1.71,3.58,4.34a2.5,2.5,0,0,1-2.15,2.27,6.87,6.87,0,0,1-1.43.14c-5,0-9.95,0-14.92,0A14.48,14.48,0,0,1,333.6,280.27Z"/><path class="cls-16" d="M333.71,398a6.17,6.17,0,0,1,1.56-.54c5.29,0,10.59-.11,15.88,0,2.34,0,3.23,1.08,3.27,3.25s-.89,3.34-3.1,3.4c-3.69.12-7.38.06-11.07.07-1.29,0-2.58,0-3.85-.05-2.27-.17-3.07-1-3.12-3.41A14.83,14.83,0,0,1,333.71,398Z"/><path class="cls-16" d="M377.14,375.85c-.62-2.29-.79-4,0-5.58.37-.23.63-.55.89-.55q7.42-.15,14.84-.22a2.59,2.59,0,0,1,2.7,1.61,3.93,3.93,0,0,1-.41,4.08,2.47,2.47,0,0,1-1.62.87q-6.22.17-12.46.14C379.82,376.2,378.58,376,377.14,375.85Z"/><path class="cls-16" d="M341.17,390.6c-1.61,0-3.22.09-4.81,0-2.25-.15-3-1.08-3.1-3.43a9.86,9.86,0,0,1,0-1.44c.18-1.5,1-2.53,2.39-2.57,3.84-.11,7.69-.09,11.53,0a2.33,2.33,0,0,1,2.25,2.14,9.44,9.44,0,0,1,.13,1.91c-.07,2.31-.89,3.26-3.14,3.39C344.7,390.69,342.93,390.61,341.17,390.6Z"/><path class="cls-16" d="M448.55,238.68a5.09,5.09,0,0,1-.42-1.16c-.25-4.16.36-4.89,4.34-5,2.88-.06,5.75-.07,8.63,0,3.72.09,4.37.86,4.16,4.69a5.11,5.11,0,0,1-.41,1.29C461.48,239.52,453.12,239.61,448.55,238.68Z"/><path class="cls-16" d="M464.9,356.39a18.53,18.53,0,0,1,.41,2.95c-.07,2.34-.87,3.23-3.18,3.3-3.51.11-7,.11-10.54,0-2.82-.08-3.58-1-3.54-3.91a11.43,11.43,0,0,1,.42-2.14C452.14,355.78,459.48,355.67,464.9,356.39Z"/><path class="cls-16" d="M334,266.9c-1.08-2.14-.76-3.84-.39-5.76a14.06,14.06,0,0,1,2.73-.62c3.35-.07,6.7-.12,10.05,0a3.4,3.4,0,0,1,2.6,5.51,3,3,0,0,1-2,1.06C342.69,267.24,338.4,267.53,334,266.9Z"/><path class="cls-16" d="M458.13,212.2c-1.45,0-2.9.09-4.33,0-1.95-.16-2.76-1.12-2.86-3.16a10.25,10.25,0,0,1,.07-1.92,2.33,2.33,0,0,1,2.09-2.3q5-.18,10.08,0a2.33,2.33,0,0,1,2.08,2.31,10.25,10.25,0,0,1,.07,1.92c-.1,2-.92,3-2.87,3.15C461,212.29,459.57,212.2,458.13,212.2Z"/><path class="cls-1" d="M414.6,293.67h3.81c.27.43.56.68.58,1a151.09,151.09,0,0,1-.25,20.62,4.28,4.28,0,0,1-4,.07C414.12,311.53,414,299.07,414.6,293.67Z"/><path class="cls-16" d="M423.05,349.08a26.87,26.87,0,0,1-3.36,0,3.8,3.8,0,0,1-3.38-3.5,3.67,3.67,0,0,1,3.42-3.92,63.5,63.5,0,0,1,7.68.06,2.3,2.3,0,0,1,2.15,2.23,11.92,11.92,0,0,1,.07,2.39,2.74,2.74,0,0,1-2.74,2.79,7.72,7.72,0,0,1-1,.05h-2.88Z"/><path class="cls-16" d="M465.17,334.32a50,50,0,0,1-12,.26c-1.52-.1-2.25-1.33-2.27-3.17s.71-3.17,2.19-3.22c3.35-.14,6.72-.1,10.08,0a2,2,0,0,1,1.93,1.87A38.8,38.8,0,0,1,465.17,334.32Z"/><path class="cls-16" d="M428.88,280.66c-3.55,0-6.89.08-10.22,0-1.56-.05-2.22-1.1-2-2.63.08-.47.23-.93.35-1.39.16-.61.33-1.22.55-2a11.68,11.68,0,0,1,2.21-.54c1.75-.09,3.51-.08,5.27,0C429.58,274.11,430.25,275.17,428.88,280.66Z"/><path class="cls-16" d="M429.23,219.67a7.29,7.29,0,0,1,0,5.31,22.36,22.36,0,0,1-11.28.21c-.81-2.59-.81-2.59-.21-5.42A22.74,22.74,0,0,1,429.23,219.67Z"/><path class="cls-16" d="M417.74,403.7a7.18,7.18,0,0,1-.06-5.78c3.74-.94,7.46-.59,11.34-.18a7.88,7.88,0,0,1,.59,1.86c.14,3.76-.52,4.51-4.29,4.54C422.82,404.15,420.27,404.52,417.74,403.7Z"/><path class="cls-16" d="M343.32,238.89a26.2,26.2,0,0,1-9,.12c-1.41-1.33-1.07-2.8-.89-4.2a2.31,2.31,0,0,1,2.24-2.12,40,40,0,0,1,5.25-.08c2,.11,2.74,1,2.92,3a6.22,6.22,0,0,1,0,1.43A17.65,17.65,0,0,1,343.32,238.89Z"/><path class="cls-16" d="M334,356c2.27,0,4.32-.09,6.37-.06.93,0,1.85.22,2.89.35a8.57,8.57,0,0,1,.56,1.9c.1,3.75-.55,4.4-4.38,4.5h-1C333.39,362.68,332.74,361.84,334,356Z"/><path class="cls-24" d="M389.24,304.82a27.71,27.71,0,0,1-1.78,5,4.5,4.5,0,0,1-7.92,0,9.83,9.83,0,0,1-.11-10.11c1.92-3.47,6.22-3.42,8.15,0A28,28,0,0,1,389.24,304.82Z"/><path class="cls-27" d="M401.05,312a10.69,10.69,0,0,1,.11-5.6,4,4,0,0,1,4.22.28,4.11,4.11,0,0,1,1.6,2.16,2.52,2.52,0,0,1-1.37,2.79A4.79,4.79,0,0,1,401.05,312Z"/><path class="cls-19" d="M401,301.69v-4a4,4,0,0,1,4.28-.1,2.36,2.36,0,0,1,0,4C404.46,302.17,403.78,302.21,401,301.69Z"/></g></g></svg>