<svg xmlns="http://www.w3.org/2000/svg" viewBox="0 0 689.77 265.45"><defs><style>.cls-1{fill:#e7f6fb;}</style></defs><g id="Layer_2" data-name="Layer 2"><g id="Layer_1-2" data-name="Layer 1"><path class="cls-1" d="M689.77,0V201c-66.31-9.77-160.49-4.9-293.94,31.26-.17.05-.4.15-.58.22-.62.22-1.26.41-1.9.61-1.05.34-2.1.66-3.15,1-1.45.44-2.9.88-4.35,1.3-1.82.54-3.64,1.06-5.47,1.58-2.17.61-4.35,1.22-6.52,1.81-2.51.68-5,1.35-7.52,2q-4.21,1.11-8.44,2.16c-3.09.77-6.19,1.53-9.29,2.26q-5,1.2-10.08,2.34-5.38,1.2-10.8,2.35Q322,251,316.28,252.17q-6,1.19-12,2.28-6.27,1.13-12.56,2.17-6.5,1.06-13,2-6.69,1-13.4,1.85t-13.73,1.61q-7,.75-14,1.35t-14.17,1q-7.12.43-14.28.67t-14.33.28q-7.17,0-14.32-.16t-14.24-.64c-4.7-.3-9.4-.68-14.09-1.17s-9.26-1.05-13.88-1.73-9.08-1.45-13.59-2.34-8.85-1.87-13.24-3-8.59-2.32-12.83-3.68-8.28-2.81-12.34-4.42-7.93-3.32-11.79-5.2-7.54-3.85-11.18-6-7.1-4.43-10.49-6.88-6.63-5-9.74-7.78a118.54,118.54,0,0,1-8.93-8.72A118.47,118.47,0,0,1,19,193.26a124.22,124.22,0,0,1-6.07-11.82,132.14,132.14,0,0,1-5-12.93A142.81,142.81,0,0,1,4.1,154.43c-1.12-5.05-2-10.16-2.62-15.29-.68-5.49-1.11-11-1.32-16.53-.23-5.93-.21-11.87,0-17.81C.43,98.41.93,92,1.63,85.67c.75-6.86,1.74-13.7,2.93-20.5C8.65,41.73,15.42,20.66,26.11,0Z"/></g></g></svg>